<svg width="24" height="24" viewBox="0 0 24 24" fill="none" xmlns="http://www.w3.org/2000/svg">
<path d="M10.14 16.375C10.62 16.875 11.24 17.1196 12 17.1087C12.76 17.0987 13.32 16.8125 13.68 16.25L18.75 8.34375C18.93 8.05208 18.9048 7.78667 18.6744 7.5475C18.4448 7.3075 18.19 7.28125 17.91 7.46875L10.32 12.75C9.78 13.125 9.4952 13.6979 9.4656 14.4688C9.4352 15.2396 9.66 15.875 10.14 16.375ZM3.72 22C3.3 22 2.9 21.8958 2.52 21.6875C2.14 21.4792 1.84 21.1875 1.62 20.8125C1.1 19.875 0.7 18.8804 0.42 17.8288C0.14 16.7763 0 15.6667 0 14.5C0 12.7708 0.3152 11.1508 0.9456 9.64C1.5752 8.13 2.4352 6.80708 3.5256 5.67125C4.6152 4.53625 5.89 3.64042 7.35 2.98375C8.81 2.32792 10.36 2 12 2C13.66 2 15.2148 2.32792 16.6644 2.98375C18.1148 3.64042 19.3848 4.53625 20.4744 5.67125C21.5648 6.80708 22.4248 8.13 23.0544 9.64C23.6848 11.1508 24 12.7708 24 14.5C24 15.6667 23.8652 16.7654 23.5956 17.7962C23.3252 18.8279 22.92 19.8333 22.38 20.8125C22.16 21.1875 21.86 21.4792 21.48 21.6875C21.1 21.8958 20.7 22 20.28 22H3.72Z" fill="#43210D"/>
</svg>
