<svg width="44" height="44" viewBox="0 0 44 44" fill="none" xmlns="http://www.w3.org/2000/svg">
<path d="M14.85 11.0687C14.85 11.8937 14.1625 12.5812 13.3375 12.5812H6.66875C5.84375 12.5812 5.15625 11.8937 5.15625 11.0687V9.21245C5.15625 8.38745 5.84375 7.69995 6.66875 7.69995H13.3375C14.1625 7.69995 14.85 8.38745 14.85 9.21245V11.0687ZM41.7313 10.9312C41.7313 11.3437 41.3875 11.7562 40.9062 11.7562H37.3312C36.9188 11.7562 36.5062 11.4125 36.5062 10.9312V9.9687C36.5062 9.5562 36.85 9.1437 37.3312 9.1437H40.9062C41.3187 9.1437 41.7313 9.48745 41.7313 9.9687V10.9312ZM44 34.5812C44 36.6437 42.35 38.2937 40.2875 38.2937H3.7125C1.65 38.2937 0 36.6437 0 34.5812V33.4812H44V34.5812Z" fill="#212528"/>
<path d="M0 13.8187C0 11.7562 1.65 10.1062 3.7125 10.1062H40.2188C42.2812 10.1062 43.9313 11.7562 43.9313 13.8187V14.9187H0V13.8187Z" fill="#51575B"/>
<path d="M0 14.7812H44V34.2375H0V14.7812Z" fill="#3E4347"/>
<path d="M37.6063 12.3751H15.5376L17.7376 4.9501C17.9438 4.5376 18.8376 3.8501 19.3876 3.7126C22.7563 2.7501 30.3188 2.7501 33.6876 3.7126C34.2376 3.8501 35.1313 4.5376 35.3376 4.9501L37.6063 12.3751Z" fill="#51575B"/>
<path d="M36.5063 20.35H16.5688L18.5626 10.3125C18.7001 9.7625 19.5938 8.86875 20.0751 8.6625C23.1001 7.425 29.9751 7.425 33.0001 8.6625C33.4813 8.86875 34.3063 9.7625 34.5126 10.3125L36.5063 20.35Z" fill="#3E4347"/>
<path d="M41.6626 25.8501C41.6626 34.2376 34.8563 40.9751 26.5376 40.9751C18.2188 40.9751 11.4126 34.2376 11.4126 25.8501C11.4126 17.5313 18.2188 10.7251 26.5376 10.7251C34.9251 10.7251 41.6626 17.5313 41.6626 25.8501Z" fill="#788287"/>
<path d="M40.0125 25.85C40.0125 33.275 33.9625 39.325 26.5375 39.325C19.1125 39.325 13.0625 33.275 13.0625 25.85C13.0625 18.425 19.1125 12.375 26.5375 12.375C33.9625 12.4438 40.0125 18.425 40.0125 25.85Z" fill="#212528"/>
<path d="M26.5377 36.7812C32.5749 36.7812 37.4689 31.8871 37.4689 25.8499C37.4689 19.8128 32.5749 14.9187 26.5377 14.9187C20.5005 14.9187 15.6064 19.8128 15.6064 25.8499C15.6064 31.8871 20.5005 36.7812 26.5377 36.7812Z" fill="#3E4347"/>
<path d="M26.5375 31.7625C29.8029 31.7625 32.45 29.1154 32.45 25.85C32.45 22.5846 29.8029 19.9375 26.5375 19.9375C23.2721 19.9375 20.625 22.5846 20.625 25.85C20.625 29.1154 23.2721 31.7625 26.5375 31.7625Z" fill="#212528"/>
<path opacity="0.5" d="M34.5812 21.2437C34.5812 23.1 33.0688 24.6125 31.2125 24.6125C29.3563 24.6125 27.8438 23.1 27.8438 21.2437C27.8438 19.3875 29.3563 17.875 31.2125 17.875C33.0688 17.8062 34.5812 19.3875 34.5812 21.2437Z" fill="#F5F5F5"/>
<path opacity="0.5" d="M24.475 30.1124C25.6521 30.1124 26.6063 29.1582 26.6063 27.9811C26.6063 26.804 25.6521 25.8499 24.475 25.8499C23.2979 25.8499 22.3438 26.804 22.3438 27.9811C22.3438 29.1582 23.2979 30.1124 24.475 30.1124Z" fill="#F5F5F5"/>
<path opacity="0.5" d="M20.6939 33.0688C21.4154 33.0688 22.0002 32.484 22.0002 31.7625C22.0002 31.0411 21.4154 30.4563 20.6939 30.4563C19.9725 30.4563 19.3877 31.0411 19.3877 31.7625C19.3877 32.484 19.9725 33.0688 20.6939 33.0688Z" fill="#F5F5F5"/>
<path d="M10.3124 31.1437C10.3124 31.9687 9.6249 32.6562 8.7999 32.6562H2.4749C1.6499 32.6562 0.962402 31.9687 0.962402 31.1437V17.8062C0.962402 16.9812 1.6499 16.2937 2.4749 16.2937H8.7999C9.6249 16.2937 10.3124 16.9812 10.3124 17.8062V31.1437Z" fill="#636C72"/>
<path d="M6.94365 14.9874C8.15868 14.9874 9.14365 14.0024 9.14365 12.7874C9.14365 11.5724 8.15868 10.5874 6.94365 10.5874C5.72863 10.5874 4.74365 11.5724 4.74365 12.7874C4.74365 14.0024 5.72863 14.9874 6.94365 14.9874Z" fill="#212528"/>
</svg>
