<svg width="18" height="18" viewBox="0 0 18 18" fill="none" xmlns="http://www.w3.org/2000/svg">
<path d="M17.2467 2.781H12.8471V0.675C12.8471 0.306 12.5156 0 12.0937 0H5.90626C5.49443 0 5.15291 0.306 5.15291 0.675V2.781H0.75335C0.341519 2.781 0 3.078 0 3.456C0 3.825 0.341519 4.131 0.75335 4.131H1.9085V15.48C1.9085 16.875 3.17412 18 4.73105 18H12.9274C14.4743 18 15.7399 16.875 15.7399 15.48V4.131H17.2467C17.6585 4.131 18 3.825 18 3.456C18 3.078 17.6585 2.781 17.2467 2.781ZM6.17748 13.635V6.98399C6.17748 6.61499 6.519 6.30899 6.93083 6.30899C7.35265 6.30899 7.68413 6.61499 7.68413 6.98399V13.635C7.68413 14.004 7.35265 14.31 6.93083 14.31C6.519 14.31 6.17748 14.004 6.17748 13.635ZM11.8225 13.635C11.8225 14.004 11.481 14.31 11.0692 14.31C10.6473 14.31 10.3158 14.004 10.3158 13.635V6.98399C10.3158 6.60599 10.6473 6.30899 11.0692 6.30899C11.481 6.30899 11.8225 6.60599 11.8225 6.98399V13.635ZM6.65961 1.35H11.3404V2.781H6.65961V1.35Z" fill="#43210D"/>
</svg>
