<svg width="25" height="25" viewBox="0 0 25 25" fill="none" xmlns="http://www.w3.org/2000/svg">
<g clip-path="url(#clip0_424_576)">
<path d="M21.2498 0.0780707L11.6404 3.39838C11.6404 3.39838 11.2888 2.61713 10.9763 2.18745C10.2342 1.0937 8.9451 1.44526 8.9451 1.44526L1.60135 3.82807C1.60135 3.82807 0.58572 4.25776 0.195095 5.39057C-0.19553 6.48432 0.195095 7.85151 0.195095 7.85151L4.41385 25.039L21.2498 10.3515C21.2498 10.3515 21.7967 3.78901 22.1482 0.781196C22.2654 -0.312554 21.2498 0.0780707 21.2498 0.0780707Z" fill="#962C2C"/>
<path d="M20.9375 9.72656L22.4609 0.078125L1.32812 8.00781L4.375 24.8047L20.9375 9.72656Z" fill="#9AABAF"/>
<path d="M21.4453 10.8594L22.9688 0.351562L1.83594 8.63281L4.375 24.8047L21.4453 10.8594Z" fill="#B3C0C4"/>
<path d="M21.8359 11.1719L23.5547 0.546875L2.26562 9.21875L4.375 24.8047L21.8359 11.1719Z" fill="#C5CFD3"/>
<path d="M22.3047 11.6016L23.9453 0.9375L2.69531 9.92188L4.375 24.8047L22.3047 11.6016Z" fill="#D9E3E8"/>
<path d="M4.41406 25.0001L22.8125 11.9532L25 2.26569C25 2.26569 25.1172 1.95319 24.8047 1.56256C24.5703 1.28912 24.2188 1.40631 24.2188 1.40631L14.3359 5.586C14.3359 5.586 13.75 7.92975 12.5781 8.55475C11.2891 9.21881 5.23437 12.1876 5.23437 12.1876C5.23437 12.1876 4.375 12.6954 3.86719 13.5157C3.39844 14.2969 3.32031 15.2735 3.32031 15.2735L4.41406 25.0001Z" fill="#FF8736"/>
</g>
<defs>
<clipPath id="clip0_424_576">
<rect width="25" height="25" fill="white"/>
</clipPath>
</defs>
</svg>
