<svg width="27" height="27" viewBox="0 0 27 27" fill="none" xmlns="http://www.w3.org/2000/svg">
<path d="M6.66568 21.9797C3.79693 20.1235 2.65787 12.9094 3.58599 9.66099C4.26099 7.21411 6.87662 3.62817 9.23912 2.70005C11.2219 1.89849 15.7782 1.89849 17.7188 2.70005C20.0813 3.62817 22.6969 7.21411 23.3719 9.66099C24.3001 12.9516 23.5829 20.1235 20.7563 21.9797C14.7657 25.861 12.6563 25.861 6.66568 21.9797Z" fill="#F5D1AC"/>
<path d="M2.15158 10.4203C3.67033 13.7531 4.05002 13.8797 5.48439 9.91406C6.24377 7.80469 5.69533 6.53906 6.62346 5.18906C7.1297 4.42969 8.26877 3.16406 8.26877 3.16406C8.26877 3.16406 -0.71717 4.09219 2.15158 10.4203Z" fill="#423223"/>
<path d="M5.99071 3.03754C3.71259 4.51411 -1.13898 3.92348 1.72977 10.2094C3.24852 13.5422 3.62821 13.6688 5.06259 9.70317C5.82196 7.59379 5.27352 6.32817 6.20165 4.97817C6.7079 4.21879 8.26884 3.16411 8.26884 3.16411C8.26884 3.16411 7.55165 2.02504 5.99071 3.03754Z" fill="#947151"/>
<path d="M24.8486 10.3781C23.3299 13.7109 22.9502 13.8375 21.5158 9.87183C20.7564 7.76245 21.3049 6.49683 20.3768 5.14683C19.8705 4.38745 18.7314 3.12183 18.7314 3.12183C18.7314 3.12183 27.7174 4.09214 24.8486 10.3781Z" fill="#423223"/>
<path d="M21.0096 3.03754C23.2877 4.51411 28.1393 3.92348 25.2705 10.2094C23.7518 13.5422 23.3721 13.6688 21.9377 9.70317C21.1783 7.59379 21.7268 6.32817 20.7986 4.97817C20.2924 4.21879 18.7314 3.16411 18.7314 3.16411C18.7314 3.16411 19.4486 2.02504 21.0096 3.03754Z" fill="#947151"/>
<path d="M7.46729 15.4829C8.86526 15.4829 9.99854 14.3496 9.99854 12.9517C9.99854 11.5537 8.86526 10.4204 7.46729 10.4204C6.06931 10.4204 4.93604 11.5537 4.93604 12.9517C4.93604 14.3496 6.06931 15.4829 7.46729 15.4829Z" fill="white"/>
<path d="M6.83447 14.8501C7.88295 14.8501 8.73291 14.0001 8.73291 12.9517C8.73291 11.9032 7.88295 11.0532 6.83447 11.0532C5.78599 11.0532 4.93604 11.9032 4.93604 12.9517C4.93604 14.0001 5.78599 14.8501 6.83447 14.8501Z" fill="#3E4347"/>
<path d="M19.5327 15.4829C20.9307 15.4829 22.064 14.3496 22.064 12.9517C22.064 11.5537 20.9307 10.4204 19.5327 10.4204C18.1347 10.4204 17.0015 11.5537 17.0015 12.9517C17.0015 14.3496 18.1347 15.4829 19.5327 15.4829Z" fill="white"/>
<path d="M20.1655 14.8501C21.214 14.8501 22.064 14.0001 22.064 12.9517C22.064 11.9032 21.214 11.0532 20.1655 11.0532C19.117 11.0532 18.2671 11.9032 18.2671 12.9517C18.2671 14.0001 19.117 14.8501 20.1655 14.8501Z" fill="#3E4347"/>
<path d="M9.15479 20.5874L11.0954 22.6546C12.2767 23.878 14.6813 23.878 15.8626 22.6546L17.8454 20.5874L15.8204 18.478H11.1798L9.15479 20.5874Z" fill="#7D644B"/>
<path d="M13.5001 16.7063C13.5001 16.7063 11.4329 19.6594 11.686 21.0516C12.0235 23.0766 14.9345 23.0766 15.3142 21.0516C15.5673 19.6594 13.5001 16.7063 13.5001 16.7063Z" fill="#F15A61"/>
<path d="M13.5002 21.8109L13.9643 18.9844H13.0361L13.5002 21.8109Z" fill="#BA454B"/>
<path d="M11.3906 17.5078H15.6094V19.4484H11.3906V17.5078Z" fill="#423223"/>
<path d="M20.1657 17.9719L17.1704 14.8079C15.3563 12.9094 11.6438 12.9094 9.82978 14.8079L6.83447 17.9719C5.99072 18.8579 5.99072 20.3344 6.83447 21.2204C7.67822 22.1063 9.07041 22.1063 9.91416 21.2204L12.9095 18.0563C13.2048 17.761 13.7532 17.761 14.0485 18.0563L17.0438 21.2204C17.8876 22.1063 19.2798 22.1063 20.1235 21.2204C21.0517 20.3344 21.0517 18.8579 20.1657 17.9719Z" fill="#947151"/>
<path d="M11.0108 15.061C11.0108 13.9641 12.1077 13.7532 13.4999 13.7532C14.8921 13.7532 15.989 13.9641 15.989 15.061C15.989 15.9469 14.0061 16.7063 13.4999 16.7063C12.9936 16.7063 11.0108 15.9047 11.0108 15.061ZM9.8338 16.4582L10.251 16.0397L10.6691 16.457L10.2519 16.875L9.8338 16.4582ZM8.83691 17.6391L9.25415 17.221L9.6718 17.6382L9.25499 18.0559L8.83691 17.6391ZM10.1776 18.0407L10.5949 17.6226L11.0129 18.0394L10.5961 18.4579L10.1776 18.0407ZM16.3277 16.4481L16.7462 16.0313L17.163 16.4494L16.745 16.8666L16.3277 16.4481ZM17.3508 17.6184L17.7693 17.2012L18.1861 17.6192L17.768 18.0365L17.3508 17.6184ZM16.0088 18.0609L16.4269 17.6441L16.8441 18.0618L16.426 18.4794L16.0088 18.0609Z" fill="#3E4347"/>
</svg>
