<svg width="20" height="20" viewBox="0 0 20 20" fill="none" xmlns="http://www.w3.org/2000/svg">
<g clip-path="url(#clip0_206_4)">
<path d="M4.95 9.05C4.72457 8.82457 4.59792 8.51881 4.59792 8.2C4.59792 7.88119 4.72457 7.57543 4.95 7.35C5.17543 7.12457 5.48119 6.99792 5.8 6.99792C6.11881 6.99792 6.42457 7.12457 6.65 7.35L8.8 9.5V1.2C8.8 0.88174 8.92643 0.576516 9.15147 0.351472C9.37652 0.126428 9.68174 0 10 0C10.3183 0 10.6235 0.126428 10.8485 0.351472C11.0736 0.576516 11.2 0.88174 11.2 1.2V9.5L13.35 7.35C13.5754 7.12457 13.8812 6.99792 14.2 6.99792C14.5188 6.99792 14.8246 7.12457 15.05 7.35C15.2754 7.57543 15.4021 7.88119 15.4021 8.2C15.4021 8.51881 15.2754 8.82457 15.05 9.05L10.85 13.25C10.6236 13.4735 10.3182 13.5988 10 13.5988C9.68182 13.5988 9.37645 13.4735 9.15 13.25L4.95 9.05ZM18.8 11.2C18.4817 11.2 18.1765 11.3264 17.9515 11.5515C17.7264 11.7765 17.6 12.0817 17.6 12.4V17.6H2.4V12.4C2.4 12.0817 2.27357 11.7765 2.04853 11.5515C1.82348 11.3264 1.51826 11.2 1.2 11.2C0.88174 11.2 0.576516 11.3264 0.351472 11.5515C0.126428 11.7765 0 12.0817 0 12.4V18C0.00262845 18.5296 0.214186 19.0368 0.588691 19.4113C0.963195 19.7858 1.47038 19.9974 2 20H18C18.5296 19.9974 19.0368 19.7858 19.4113 19.4113C19.7858 19.0368 19.9974 18.5296 20 18V12.4C20 12.0817 19.8736 11.7765 19.6485 11.5515C19.4235 11.3264 19.1183 11.2 18.8 11.2Z" fill="#43210D"/>
</g>
<defs>
<clipPath id="clip0_206_4">
<rect width="20" height="20" fill="white"/>
</clipPath>
</defs>
</svg>
