<svg width="27" height="27" viewBox="0 0 27 27" fill="none" xmlns="http://www.w3.org/2000/svg">
<path d="M26.9837 21.2582C26.9837 23.6658 25.0326 25.6174 22.6245 25.6174H4.36154C1.95306 25.6174 0.00146484 23.6658 0.00146484 21.2582V6.88913C0.00146484 4.48233 1.95306 2.52905 4.36154 2.52905H22.6245C25.0326 2.52905 26.9837 4.48233 26.9837 6.88913V21.2582Z" fill="#E6E7E8"/>
<path d="M9.08232 14.1587C11.854 11.3097 10.623 12.5399 13.4411 9.79858H13.5428C15.6876 11.8843 15.3607 11.7198 17.9016 14.1587L26.9837 21.2601C26.9837 23.6677 25.0326 25.6193 22.6245 25.6193H4.36154C1.95306 25.6193 0.00146484 23.6677 0.00146484 21.2601L9.08401 14.1587" fill="#656565"/>
<path d="M9.62108 14.8797C12.054 12.4467 10.9732 13.4984 13.4475 11.1558H13.5335C15.4198 12.9373 15.1303 12.7973 17.36 14.8797L25.3351 20.9441C25.3351 22.9991 23.6223 24.6659 21.5087 24.6659H5.46898C3.35539 24.6659 1.64258 22.9991 1.64258 20.9441L9.61812 14.8797" fill="#E6E7E8"/>
<path d="M26.9837 6.89133C26.9837 4.48453 25.0326 2.53125 22.6245 2.53125H4.36154C1.95306 2.53125 0.00146484 4.48453 0.00146484 6.89133L13.1429 18.0605C13.2378 18.1541 13.3365 18.2478 13.4416 18.352H13.5432C13.6782 18.2212 13.8023 18.1014 13.9204 17.9858L26.9846 6.89133" fill="#656565"/>
<path d="M25.3545 7.03943C25.3545 4.92162 23.6387 3.20459 21.5196 3.20459H5.45887C3.34105 3.20459 1.62402 4.92246 1.62402 7.03943L13.1838 16.8611L13.4475 17.118H13.5336C13.6529 17.0016 13.7626 16.8974 13.8647 16.7961L25.3566 7.03817" fill="#B6B6B6"/>
<path d="M15.2046 6.77942H12.3485V8.31589H14.9767C15.1712 8.31589 15.3159 8.35976 15.4113 8.44667C15.5066 8.53358 15.5539 8.64748 15.5539 8.79008C15.5539 8.93183 15.507 9.04784 15.413 9.13812C15.3197 9.22756 15.1746 9.27228 14.9767 9.27228H12.3485V11.0522H15.3016C15.5011 11.0522 15.6509 11.0994 15.7526 11.1914C15.8534 11.2842 15.9036 11.407 15.9036 11.5605C15.9036 11.7086 15.8534 11.8288 15.7526 11.9217C15.6509 12.0136 15.5007 12.06 15.3016 12.06H11.8566C11.5798 12.06 11.3819 11.9997 11.2609 11.8769C11.1398 11.7542 11.0786 11.5563 11.0786 11.2838V6.57819C11.0786 6.39594 11.1065 6.24786 11.1609 6.13269C11.2136 6.01709 11.2993 5.93272 11.4144 5.8804C11.5292 5.82767 11.6768 5.80151 11.8566 5.80151H15.2037C15.4049 5.80151 15.5556 5.84623 15.6543 5.93567C15.7521 6.02595 15.8002 6.14239 15.8002 6.28794C15.8002 6.43601 15.7526 6.55456 15.6543 6.64484C15.556 6.73386 15.4054 6.77942 15.2041 6.77942" fill="#25333A"/>
</svg>
