<svg width="33" height="33" viewBox="0 0 33 33" fill="none" xmlns="http://www.w3.org/2000/svg">
<path d="M27.844 26.2711H18.0471L21.6436 22.6746L28.9397 15.3785C29.2745 15.0444 29.5401 14.6476 29.7213 14.2107C29.9026 13.7739 29.9959 13.3056 29.9959 12.8326C29.9959 12.3596 29.9026 11.8913 29.7213 11.4545C29.5401 11.0176 29.2745 10.6208 28.9397 10.2867L23.1002 4.44725C22.4217 3.77342 21.5042 3.39526 20.5479 3.39526C19.5916 3.39526 18.6741 3.77342 17.9955 4.44725L10.7123 11.7433L3.41624 19.0265C2.74241 19.7051 2.36426 20.6226 2.36426 21.5789C2.36426 22.5352 2.74241 23.4527 3.41624 24.1312L8.19866 28.9137C8.34138 29.0589 8.51204 29.1738 8.70035 29.2514C8.88866 29.3289 9.09073 29.3675 9.29437 29.3648H27.844C28.2542 29.3648 28.6477 29.2019 28.9378 28.9118C29.2279 28.6217 29.3909 28.2282 29.3909 27.818C29.3909 27.4077 29.2279 27.0142 28.9378 26.7241C28.6477 26.434 28.2542 26.2711 27.844 26.2711V26.2711ZM20.1869 6.63865C20.2349 6.58993 20.2921 6.55125 20.3552 6.52484C20.4183 6.49843 20.4859 6.48483 20.5543 6.48483C20.6227 6.48483 20.6904 6.49843 20.7535 6.52484C20.8165 6.55125 20.8737 6.58993 20.9217 6.63865L26.7483 12.4652C26.797 12.5132 26.8357 12.5704 26.8621 12.6335C26.8885 12.6965 26.9021 12.7642 26.9021 12.8326C26.9021 12.901 26.8885 12.9687 26.8621 13.0317C26.8357 13.0948 26.797 13.152 26.7483 13.2L20.5479 19.4004L13.9866 12.8262L20.1869 6.63865ZM13.6772 26.2711H9.92601L5.60765 21.9527C5.55893 21.9047 5.52024 21.8475 5.49383 21.7845C5.46742 21.7214 5.45382 21.6537 5.45382 21.5853C5.45382 21.517 5.46742 21.4493 5.49383 21.3862C5.52024 21.3231 5.55893 21.2659 5.60765 21.218L11.808 15.0176L18.3694 21.5789L13.6772 26.2711Z" fill="white"/>
</svg>
