<svg width="41" height="41" viewBox="0 0 41 41" fill="none" xmlns="http://www.w3.org/2000/svg">
<path d="M10.25 33.7554V36.4666C10.25 37.0031 10.466 37.5178 10.8504 37.8972C11.2349 38.2766 11.7563 38.4898 12.3 38.4898H28.7C29.2437 38.4898 29.7651 38.2766 30.1496 37.8972C30.534 37.5178 30.75 37.0031 30.75 36.4666V33.7554C33.8663 31.9797 36.4541 29.4257 38.2534 26.35C40.0526 23.2744 40.9999 19.7856 41 16.2341C41 15.6975 40.784 15.1829 40.3996 14.8035C40.0151 14.424 39.4937 14.2109 38.95 14.2109C38.9125 12.9721 38.5535 11.7636 37.9074 10.7008C37.2614 9.63813 36.3498 8.7568 35.26 8.14115C34.9987 6.37878 34.1025 4.76843 32.7357 3.6053C31.3689 2.44218 29.6232 1.80423 27.8185 1.8084C27.1265 1.80722 26.4372 1.89565 25.7685 2.07142C24.3575 0.74186 22.4816 0 20.5308 0C18.5799 0 16.704 0.74186 15.293 2.07142C14.6243 1.89565 13.935 1.80722 13.243 1.8084C11.4313 1.79445 9.67562 2.42798 8.30028 3.59198C6.92493 4.75599 6.02281 6.37186 5.7605 8.14115C4.66686 8.75428 3.75123 9.63451 3.10147 10.6974C2.45172 11.7603 2.08965 12.9701 2.05 14.2109C1.50631 14.2109 0.984881 14.424 0.600431 14.8035C0.215981 15.1829 0 15.6975 0 16.2341C9.1414e-05 19.7856 0.947363 23.2744 2.74661 26.35C4.54586 29.4257 7.13368 31.9797 10.25 33.7554ZM8.4255 11.4997L10.127 10.9737L9.799 9.15277C9.80435 8.71702 9.89662 8.28658 10.0705 7.88603C10.2445 7.48547 10.4966 7.12265 10.8126 6.81829C11.1286 6.51392 11.5023 6.27397 11.9123 6.11214C12.3222 5.95031 12.7605 5.86977 13.202 5.87512C13.794 5.87177 14.378 6.01065 14.9035 6.27977L16.564 7.19023L17.589 5.63233C17.9096 5.16079 18.3428 4.77437 18.8505 4.50716C19.3581 4.23996 19.9246 4.10019 20.5 4.10019C21.0754 4.10019 21.6419 4.23996 22.1495 4.50716C22.6572 4.77437 23.0904 5.16079 23.411 5.63233L24.436 7.19023L26.0965 6.27977C26.622 6.01065 27.206 5.87177 27.798 5.87512C28.6847 5.86411 29.5403 6.1972 30.1806 6.80266C30.8209 7.40812 31.1947 8.23753 31.2215 9.11231L30.8935 10.8321L32.5745 11.3986C33.1946 11.5901 33.7426 11.9602 34.148 12.4613C34.5535 12.9624 34.7979 13.5717 34.85 14.2109H6.15C6.20207 13.5717 6.44653 12.9624 6.85199 12.4613C7.25744 11.9602 7.8054 11.5901 8.4255 11.3986V11.4997ZM36.777 18.2574C36.435 20.9062 35.4343 23.4305 33.864 25.605C32.2938 27.7796 30.2028 29.537 27.7775 30.7205C27.4363 30.8902 27.1499 31.1506 26.9507 31.4724C26.7515 31.7941 26.6473 32.1644 26.65 32.5415V34.4433H14.35V32.5415C14.3527 32.1644 14.2485 31.7941 14.0493 31.4724C13.8501 31.1506 13.5637 30.8902 13.2225 30.7205C10.7972 29.537 8.7062 27.7796 7.13597 25.605C5.56573 23.4305 4.56501 20.9062 4.223 18.2574H36.777Z" fill="white"/>
</svg>
