<svg width="30" height="30" viewBox="0 0 30 30" fill="none" xmlns="http://www.w3.org/2000/svg">
<path d="M12.5001 19.3749C14.1577 19.3749 15.7474 18.7164 16.9195 17.5443C18.0916 16.3722 18.7501 14.7825 18.7501 13.1249C18.7501 11.4673 18.0916 9.8776 16.9195 8.70549C15.7474 7.53339 14.1577 6.87491 12.5001 6.87491C10.8425 6.87491 9.25281 7.53339 8.0807 8.70549C6.9086 9.8776 6.25012 11.4673 6.25012 13.1249C6.25012 14.7825 6.9086 16.3722 8.0807 17.5443C9.25281 18.7164 10.8425 19.3749 12.5001 19.3749ZM20.0164 8.64241C20.7541 9.87982 21.175 11.2802 21.2417 12.7193C21.3084 14.1584 21.0188 15.5917 20.3987 16.892C19.7786 18.1923 18.8471 19.3195 17.6868 20.1735C16.5266 21.0274 15.1735 21.5818 13.7476 21.7874L13.7501 21.8749V23.1249H15.0001C15.3316 23.1249 15.6496 23.2566 15.884 23.491C16.1184 23.7254 16.2501 24.0434 16.2501 24.3749C16.2501 24.7064 16.1184 25.0244 15.884 25.2588C15.6496 25.4932 15.3316 25.6249 15.0001 25.6249H13.7501V26.8749C13.7501 27.2064 13.6184 27.5244 13.384 27.7588C13.1496 27.9932 12.8316 28.1249 12.5001 28.1249C12.1686 28.1249 11.8507 27.9932 11.6162 27.7588C11.3818 27.5244 11.2501 27.2064 11.2501 26.8749V25.6249H10.0001C9.6686 25.6249 9.35066 25.4932 9.11624 25.2588C8.88182 25.0244 8.75012 24.7064 8.75012 24.3749C8.75012 24.0434 8.88182 23.7254 9.11624 23.491C9.35066 23.2566 9.6686 23.1249 10.0001 23.1249H11.2501V21.8749C11.2501 21.8449 11.2501 21.8162 11.2526 21.7874C9.06663 21.4671 7.08264 20.3319 5.69877 18.6097C4.31491 16.8875 3.63355 14.7056 3.79143 12.5019C3.94931 10.2982 4.93475 8.23579 6.55 6.72842C8.16524 5.22106 10.2908 4.38032 12.5001 4.37491C14.6984 4.37223 16.8167 5.19945 18.4314 6.69116L20.7439 4.37866H18.7626C18.4311 4.37866 18.1132 4.24697 17.8787 4.01255C17.6443 3.77813 17.5126 3.46018 17.5126 3.12866C17.5126 2.79714 17.6443 2.4792 17.8787 2.24478C18.1132 2.01036 18.4311 1.87866 18.7626 1.87866H23.7626C24.0941 1.87866 24.4121 2.01036 24.6465 2.24478C24.8809 2.4792 25.0126 2.79714 25.0126 3.12866V8.12866C25.0126 8.46018 24.8809 8.77813 24.6465 9.01255C24.4121 9.24697 24.0941 9.37866 23.7626 9.37866C23.4311 9.37866 23.1132 9.24697 22.8787 9.01255C22.6443 8.77813 22.5126 8.46018 22.5126 8.12866V6.14616L20.0176 8.64241H20.0164Z" fill="black"/>
</svg>
