<svg width="54" height="54" viewBox="0 0 54 54" fill="none" xmlns="http://www.w3.org/2000/svg">
<g clip-path="url(#clip0_207_2)">
<path fill-rule="evenodd" clip-rule="evenodd" d="M30.3153 1.14719C29.3674 0.403676 28.2007 0 26.9997 0C25.7988 0 24.6321 0.403676 23.6842 1.14719L1.04786 18.8973C-0.9825 20.4954 0.135277 23.7759 2.70833 23.7759H5.40017V45.5552C5.40017 46.9992 5.96909 48.3841 6.98176 49.4053C7.99444 50.4264 9.36792 51 10.8001 51H24.2998V31.9431C24.2998 31.2211 24.5842 30.5286 25.0906 30.0181C25.5969 29.5075 26.2837 29.2207 26.9997 29.2207C27.7158 29.2207 28.4025 29.5075 28.9089 30.0181C29.4152 30.5286 29.6997 31.2211 29.6997 31.9431V51H43.1994C44.6315 51 46.005 50.4264 47.0177 49.4053C48.0304 48.3841 48.5993 46.9992 48.5993 45.5552V23.7759H51.2911C53.8615 23.7759 54.9847 20.4954 52.9516 18.9L30.3153 1.14991V1.14719Z" fill="#43210D"/>
</g>
<defs>
<clipPath id="clip0_207_2">
<rect width="54" height="54" fill="white"/>
</clipPath>
</defs>
</svg>
