<svg width="24" height="29" viewBox="0 0 24 29" fill="none" xmlns="http://www.w3.org/2000/svg">
<path d="M0.0684377 0.439998H3.42844V16.12C3.42844 16.7867 3.4151 17.52 3.38844 18.32C3.38844 19.0933 3.3751 19.8667 3.34844 20.64C3.32177 21.4133 3.28177 22.1067 3.22844 22.72C3.20177 23.3067 3.1751 23.76 3.14844 24.08H3.30844L19.0284 0.439998H23.0284V29H19.6684V13.48C19.6684 12.76 19.6818 11.9867 19.7084 11.16C19.7351 10.3067 19.7618 9.49333 19.7884 8.72C19.8418 7.92 19.8818 7.21333 19.9084 6.6C19.9351 5.98667 19.9618 5.53333 19.9884 5.24H19.8284L4.06844 29H0.0684377V0.439998Z" fill="white"/>
</svg>
