<svg width="25" height="25" viewBox="0 0 25 25" fill="none" xmlns="http://www.w3.org/2000/svg">
<g clip-path="url(#clip0_424_324)">
<path d="M22.2656 2.73437C19.6484 0.117187 15.4297 0.117187 12.8516 2.73437C10.7031 4.88281 10.3516 8.125 11.6797 10.6641L2.14844 20.3125L0.78125 23.5938L1.40625 24.2188L3.86719 23.9844L14.3359 13.3594C16.875 14.7656 20.1172 14.375 22.2266 12.2266C24.8828 9.60938 24.8828 5.35156 22.2656 2.73437ZM20.3906 7.5C19.6094 8.28125 18.3203 8.28125 17.5391 7.5C16.7578 6.71875 16.7578 5.42969 17.5391 4.60938C18.3203 3.82812 19.6094 3.82812 20.3906 4.60938C21.2109 5.39062 21.2109 6.67969 20.3906 7.5Z" fill="#EDA454"/>
<path d="M6.17183 22.4609L6.7187 21.875V21.0937L3.86714 23.9844L5.58589 23.7891L6.17183 23.2031V22.4609ZM10.1953 18.3594L10.7421 17.7734V16.9922L7.30464 20.5078H8.08589L8.63276 19.9219H9.41401L10.1953 19.1406V18.3594ZM11.914 12.3438C12.1093 12.1484 11.9921 12.0703 11.914 11.9531C11.7968 11.8359 11.7578 11.7188 11.5625 11.9531L3.08589 20.5078C2.89058 20.7031 3.00776 20.7812 3.08589 20.8984C3.20308 21.0156 3.24214 21.1328 3.43745 20.8984L11.914 12.3438ZM13.0859 13.5156C13.2812 13.3203 13.164 13.2422 13.0859 13.125C12.9687 13.0078 12.9296 12.8906 12.7343 13.125L4.2187 21.6797C4.02339 21.875 4.14058 21.9531 4.2187 22.0703C4.33589 22.1875 4.37495 22.3047 4.57026 22.0703L13.0859 13.5156ZM21.875 3.125C19.4921 0.742188 15.625 0.742188 13.2421 3.125C11.4453 4.92187 11.0156 7.57812 11.914 9.80469C11.0937 7.69531 11.5625 5.23437 13.2421 3.55469C15.5078 1.25 19.2187 1.25 21.4843 3.51562C23.75 5.82031 23.75 9.53125 21.4843 11.7969C19.8046 13.4766 17.3437 13.9062 15.2734 13.125C17.5 14.0234 20.1171 13.5938 21.914 11.7969C24.2578 9.41406 24.2578 5.50781 21.875 3.125Z" fill="#CC7F2B"/>
</g>
<defs>
<clipPath id="clip0_424_324">
<rect width="25" height="25" fill="white"/>
</clipPath>
</defs>
</svg>
