<svg width="55" height="55" viewBox="0 0 55 55" fill="none" xmlns="http://www.w3.org/2000/svg">
<path d="M16.0684 13.44H19.4284V29.12C19.4284 29.7867 19.4151 30.52 19.3884 31.32C19.3884 32.0933 19.3751 32.8667 19.3484 33.64C19.3218 34.4133 19.2818 35.1067 19.2284 35.72C19.2018 36.3067 19.1751 36.76 19.1484 37.08H19.3084L35.0284 13.44H39.0284V42H35.6684V26.48C35.6684 25.76 35.6818 24.9867 35.7084 24.16C35.7351 23.3067 35.7618 22.4933 35.7884 21.72C35.8418 20.92 35.8818 20.2133 35.9084 19.6C35.9351 18.9867 35.9618 18.5333 35.9884 18.24H35.8284L20.0684 42H16.0684V13.44Z" fill="white"/>
<circle cx="27.5" cy="27.5" r="26" stroke="white" stroke-width="3"/>
</svg>
