<svg width="5" height="15" viewBox="0 0 5 15" fill="none" xmlns="http://www.w3.org/2000/svg">
<path fill-rule="evenodd" clip-rule="evenodd" d="M0.348269 14.9393C0.200473 14.8708 0.0881444 14.751 0.035913 14.6061C-0.0163184 14.4612 -0.00419022 14.3031 0.0696389 14.1664L3.67684 7.50224L0.0683889 0.839184C0.0308812 0.771396 0.00827789 0.697424 0.00188201 0.621532C-0.00451386 0.545641 0.00542421 0.469331 0.0311234 0.397002C0.0568226 0.324674 0.0977743 0.257757 0.151618 0.20011C0.205461 0.142464 0.271132 0.0952279 0.344843 0.0611248C0.418554 0.0270216 0.498847 0.00672556 0.581093 0.00140855C0.66334 -0.00390846 0.745913 0.00585815 0.824053 0.0301447C0.902192 0.0544312 0.974351 0.0927572 1.03637 0.142914C1.09839 0.19307 1.14904 0.254065 1.18541 0.322381L4.9338 7.24384C4.97733 7.32405 5 7.41252 5 7.50224C5 7.59195 4.97733 7.68043 4.9338 7.76064L1.18541 14.6821C1.11118 14.8186 0.981362 14.9223 0.824434 14.9705C0.667506 15.0187 0.496269 15.0075 0.348269 14.9393Z" fill="white"/>
</svg>
