<svg width="55" height="55" viewBox="0 0 55 55" fill="none" xmlns="http://www.w3.org/2000/svg">
<path d="M18.4483 38.7846C16.3182 36.3714 15.2532 32.9943 15.2532 28.6532C15.2532 24.2986 16.3182 20.935 18.4483 18.5622C20.5919 16.1759 23.5983 14.9828 27.4676 14.9828C31.3503 14.9828 34.3634 16.1962 36.507 18.6229C38.664 21.0361 39.7426 24.3795 39.7426 28.6532C39.7426 32.9134 38.664 36.2636 36.507 38.7037C34.3499 41.1439 31.33 42.364 27.4473 42.364C23.5781 42.364 20.5784 41.1709 18.4483 38.7846ZM34.2219 20.5035C32.7254 18.6566 30.5009 17.7331 27.5484 17.7331C24.6094 17.7331 22.3715 18.6633 20.8346 20.5238C19.2977 22.3842 18.5292 25.1075 18.5292 28.6936C18.5292 32.2663 19.2977 34.9896 20.8346 36.8635C22.3715 38.724 24.6094 39.6542 27.5484 39.6542C30.4874 39.6542 32.7052 38.7307 34.2016 36.8837C35.7116 35.0233 36.4665 32.2932 36.4665 28.6936C36.4665 25.0806 35.7183 22.3505 34.2219 20.5035Z" fill="white"/>
<circle cx="27.5" cy="27.5" r="26" stroke="white" stroke-width="3"/>
</svg>
