<?xml version="1.0" encoding="UTF-8"?>
<!DOCTYPE svg PUBLIC "-//W3C//DTD SVG 1.1//EN" "http://www.w3.org/Graphics/SVG/1.1/DTD/svg11.dtd">
<!-- Creator: CorelDRAW 2021 (64-Bit) -->
<svg xmlns="http://www.w3.org/2000/svg" xml:space="preserve" width="86.5846mm" height="44.0954mm" version="1.1" style="shape-rendering:geometricPrecision; text-rendering:geometricPrecision; image-rendering:optimizeQuality; fill-rule:evenodd; clip-rule:evenodd"
viewBox="0 0 1998.31 1017.69"
 xmlns:xlink="http://www.w3.org/1999/xlink"
 xmlns:xodm="http://www.corel.com/coreldraw/odm/2003">
 <defs>
  <style type="text/css">
   <![CDATA[
    .str0 {stroke:white;stroke-width:39.08;stroke-miterlimit:22.9256}
    .fil1 {fill:none}
    .fil0 {fill:#57A8FF}
    .fil2 {fill:#69FF6E}
    .fil3 {fill:white}
   ]]>
  </style>
 </defs>
 <g id="Слой_x0020_1">
  <metadata id="CorelCorpID_0Corel-Layer"/>
  <path class="fil0 str0" d="M19.89 998.14l306.38 -0.13c1.94,-192.75 68.64,-405.84 292.46,-555.43 0,0 -193.69,-238.09 -193.69,-238.09 -74.97,48.04 -396.23,294.84 -405.15,793.66z"/>
  <path class="fil1 str0" d="M1978.77 998.03l-306.38 -0.13c-1.46,-178.16 -64.88,-405.43 -296.82,-558.89 0,0 194.65,-236.37 194.65,-236.37 102.86,73.35 412.95,329.82 408.56,795.4z"/>
  <path class="fil2 str0" d="M487.66 162.64l187.3 245.22c143.97,-81.44 386.98,-135.48 643.55,-3.32 0,0 186.97,-245.65 186.97,-245.65 -324.03,-198.68 -743.41,-173.87 -1017.81,3.75z"/>
  <path class="fil3" d="M1015.53 457.91c-36.23,171.16 -116.91,379.02 -116.2,427.62 0.82,56.82 77.72,102.43 124.2,101.76 47.08,-0.68 121.59,-59.26 120.91,-105.78 -0.82,-56.81 -77.83,-251.77 -128.91,-423.6z"/>
 </g>
</svg>
