<?xml version="1.0" encoding="UTF-8"?>
<!DOCTYPE svg PUBLIC "-//W3C//DTD SVG 1.1//EN" "http://www.w3.org/Graphics/SVG/1.1/DTD/svg11.dtd">
<!-- Creator: CorelDRAW 2021 (64-Bit) -->
<svg xmlns="http://www.w3.org/2000/svg" xml:space="preserve" width="86.5846mm" height="44.0954mm" version="1.1" style="shape-rendering:geometricPrecision; text-rendering:geometricPrecision; image-rendering:optimizeQuality; fill-rule:evenodd; clip-rule:evenodd"
viewBox="0 0 1961.7 999.05"
 xmlns:xlink="http://www.w3.org/1999/xlink"
 xmlns:xodm="http://www.corel.com/coreldraw/odm/2003">
 <defs>
  <style type="text/css">
   <![CDATA[
    .str0 {stroke:white;stroke-width:38.36;stroke-miterlimit:22.9256}
    .fil1 {fill:none}
    .fil0 {fill:#57A8FF}
    .fil2 {fill:white}
   ]]>
  </style>
 </defs>
 <g id="Слой_x0020_1">
  <metadata id="CorelCorpID_0Corel-Layer"/>
  <path class="fil0 str0" d="M19.53 979.86l300.77 -0.13c1.91,-189.22 67.38,-398.41 287.1,-545.25 0,0 -190.14,-233.73 -190.14,-233.73 -73.6,47.16 -388.98,289.43 -397.73,779.12z"/>
  <path class="fil1 str0" d="M1942.52 979.74l-300.77 -0.13c-1.43,-174.9 -63.69,-398 -291.39,-548.65 0,0 191.08,-232.04 191.08,-232.04 100.97,72.01 405.39,323.78 401.07,780.83z"/>
  <path class="fil1 str0" d="M478.73 159.66l183.86 240.73c141.34,-79.95 379.89,-133 631.76,-3.26 0,0 183.54,-241.15 183.54,-241.15 -318.1,-195.04 -729.79,-170.68 -999.17,3.68z"/>
  <path class="fil2" d="M627.21 668.32c145.99,105.12 308.05,267.3 354.07,286.81 53.8,22.81 128.63,-30.6 147.28,-74.61 18.9,-44.58 -5.28,-138.99 -49.33,-157.66 -53.79,-22.8 -269.16,-31.28 -452.02,-54.54z"/>
 </g>
</svg>
