<svg width="29" height="30" viewBox="0 0 29 30" fill="none" xmlns="http://www.w3.org/2000/svg">
<path d="M16.2658 0.0399985V3.56C19.3591 3.61333 21.7991 4.12 23.5858 5.08C25.3724 6.04 26.6391 7.32 27.3858 8.92C28.1324 10.4933 28.5058 12.2533 28.5058 14.2C28.5058 15.48 28.3058 16.76 27.9058 18.04C27.5324 19.2933 26.8791 20.44 25.9458 21.48C25.0124 22.4933 23.7591 23.32 22.1858 23.96C20.6124 24.6 18.6391 24.9467 16.2658 25V29.4H12.7058V25C10.2791 24.9467 8.26578 24.6 6.66578 23.96C5.09245 23.2933 3.85245 22.44 2.94578 21.4C2.03911 20.3333 1.39911 19.1733 1.02578 17.92C0.652448 16.6667 0.465781 15.4267 0.465781 14.2C0.465781 12.7867 0.665781 11.4533 1.06578 10.2C1.49245 8.92 2.17245 7.8 3.10578 6.84C4.06578 5.85333 5.33245 5.06667 6.90578 4.48C8.47912 3.89333 10.4124 3.58666 12.7058 3.56V0.0399985H16.2658ZM12.7058 6.6C10.5724 6.65333 8.86578 7 7.58578 7.64C6.33245 8.28 5.43911 9.16 4.90578 10.28C4.37245 11.3733 4.10578 12.6667 4.10578 14.16C4.10578 15.7333 4.39911 17.1067 4.98578 18.28C5.59911 19.4267 6.53245 20.32 7.78578 20.96C9.06578 21.6 10.7058 21.96 12.7058 22.04V6.6ZM16.2658 22.04C18.3191 21.96 19.9724 21.5867 21.2258 20.92C22.5058 20.2533 23.4258 19.3467 23.9858 18.2C24.5724 17.0267 24.8658 15.68 24.8658 14.16C24.8658 12.64 24.5991 11.3333 24.0658 10.24C23.5324 9.12 22.6391 8.25333 21.3858 7.64C20.1324 7 18.4258 6.65333 16.2658 6.6V22.04Z" fill="white"/>
</svg>
