<svg width="39" height="39" viewBox="0 0 39 39" fill="none" xmlns="http://www.w3.org/2000/svg">
<path d="M18.6877 19.5V21.9375H16.2502C15.7627 21.9375 15.4377 22.2625 15.4377 22.75C15.4377 23.2375 15.7627 23.5625 16.2502 23.5625H18.6877V26C18.6877 26.4875 19.0127 26.8125 19.5002 26.8125C19.9877 26.8125 20.3127 26.4875 20.3127 26V23.5625H22.7502C23.2377 23.5625 23.5627 23.2375 23.5627 22.75C23.5627 22.2625 23.2377 21.9375 22.7502 21.9375H20.3127V19.5C20.3127 19.0125 19.9877 18.6875 19.5002 18.6875C19.0127 18.6875 18.6877 19.0125 18.6877 19.5ZM35.4252 17.225L19.9877 3.57505C19.6627 3.25005 19.1752 3.25005 18.8502 3.57505L3.4127 17.225C3.0877 17.55 3.0877 18.0375 3.4127 18.3625C3.7377 18.6875 4.2252 18.6875 4.5502 18.3625L6.5002 16.7375V34.9376C6.5002 35.4251 6.8252 35.7501 7.3127 35.7501H31.6877C32.1752 35.7501 32.5002 35.4251 32.5002 34.9376V16.7375L34.4502 18.3625C34.6127 18.525 34.7752 18.525 34.9377 18.525C35.1002 18.525 35.4252 18.3625 35.5877 18.2C35.9127 18.0375 35.7502 17.3875 35.4252 17.225V17.225ZM30.8752 34.1251H8.1252V15.275L19.5002 5.20005L30.8752 15.275V34.1251Z" fill="white"/>
</svg>
