<svg width="27" height="27" viewBox="0 0 27 27" fill="none" xmlns="http://www.w3.org/2000/svg">
<g clip-path="url(#clip0_424_357)">
<path d="M24.6375 1.05465C23.5828 -0.421909 15.0609 6.03278 16.1156 7.50934C16.9593 8.6484 18.014 9.44997 19.1109 9.95622C17.9718 11.0953 16.664 12.2343 15.2296 13.3312C13.7531 14.4281 12.3187 15.3562 10.9265 16.1578C10.7578 14.9343 10.2937 13.6687 9.44996 12.5718C8.39527 11.0531 -0.126602 17.5078 0.928085 18.9422C2.44684 21.0093 4.68277 22.064 6.70777 21.8953C9.40777 21.7265 13.6265 19.8281 17.7609 16.7062C22.5281 13.1203 25.7343 8.9859 26.0718 6.37028C26.3671 4.68278 25.8609 2.74215 24.6375 1.05465Z" fill="#FFE86F"/>
<path d="M3.37515 19.9124C3.41734 19.9124 3.41734 19.9124 3.37515 19.9124V19.9124ZM3.37515 19.9124C2.61578 19.364 1.5189 18.7733 1.77203 17.7608C-0.042037 19.5749 4.76734 21.6421 6.07515 21.2624C5.14703 20.9249 4.26109 20.503 3.37515 19.9124ZM19.8705 9.19678C18.9002 8.69053 16.6642 7.63584 17.0017 6.24365C15.1876 8.05771 19.997 10.1249 21.3048 9.74521C20.7986 9.61865 20.3345 9.4499 19.8705 9.19678Z" fill="#FFD3BB"/>
<path d="M21.8533 17.9297C22.1064 17.5922 22.4861 17.2547 22.908 16.9594C23.0767 16.8328 23.1189 16.5797 23.0345 16.4109C22.908 16.2422 22.6549 16.2 22.4861 16.2844C21.8955 16.6641 21.4314 17.1281 21.0939 17.5922C20.883 17.5078 20.6299 17.4656 20.3767 17.4656C19.7439 17.4234 19.1955 17.6766 18.7314 18.1406C18.4783 18.3938 18.2674 18.8156 18.1408 19.2375C17.5924 19.2375 17.0439 19.4484 16.622 19.8281C16.2424 20.1656 16.0314 20.5875 15.9049 21.0516C15.1455 21.0094 14.4705 21.3891 14.1752 21.6422C14.0064 21.5156 13.7955 21.3891 13.6267 21.2625C13.0783 21.0094 12.4455 21.0094 11.8549 21.2625C11.5174 21.3891 11.1799 21.6844 10.8845 22.0641C10.3783 21.8531 9.78767 21.8531 9.28142 22.0219C8.81736 22.1906 8.43767 22.4859 8.14236 22.8656C7.12986 22.4016 5.77986 22.275 4.47205 22.6125C3.2908 22.9078 1.94079 22.2328 1.68767 21.4734C1.47673 20.8828 2.19392 20.4188 2.65798 20.2078C2.86892 20.1234 2.95329 19.8703 2.86892 19.7016C2.78455 19.5328 2.53142 19.4063 2.36267 19.4906C0.717357 20.25 0.84392 21.3047 0.970483 21.6844C1.35017 22.8656 3.16423 23.6672 4.64079 23.3297C5.73767 23.0766 6.87673 23.1609 7.72048 23.4984C7.46736 23.9625 7.34079 24.4687 7.34079 24.7219C7.34079 25.4812 7.72048 25.8188 7.97361 25.9453C8.10017 26.0297 8.26892 26.0719 8.39548 26.0719C8.69079 26.1141 8.98611 26.0719 9.23923 25.9031C9.57673 25.6922 9.78767 25.3547 9.78767 24.975C9.78767 24.3 9.45017 23.7094 8.85954 23.2453C9.07048 23.0344 9.32361 22.8234 9.57673 22.7391C9.91423 22.6125 10.2517 22.6547 10.5049 22.6969C10.1674 23.3719 10.0408 24.1313 10.2939 24.7641C10.5049 25.3125 11.0533 25.6078 11.6439 25.4813C12.2345 25.3547 12.6142 24.8484 12.6142 24.2578C12.572 23.5828 12.2345 22.8656 11.6439 22.4016C11.8127 22.1906 12.0236 22.0219 12.2345 21.9375C12.6564 21.7688 12.9939 21.7688 13.3736 21.9375C13.5002 21.9797 13.5845 22.0641 13.7111 22.1484C13.5845 22.275 13.5002 22.4016 13.4158 22.5281C13.1205 23.0344 13.0783 23.625 13.247 24.1734C13.5002 24.8906 14.133 25.0594 14.597 24.9328C15.1877 24.7219 15.6517 24.0047 15.3564 23.1609C15.272 22.9078 15.1033 22.5703 14.8502 22.2328L14.808 22.1906C15.0611 22.0219 15.4408 21.8109 15.8627 21.8109C15.8205 22.3594 15.8627 22.8234 15.9892 23.0766C16.2845 23.7516 16.7908 23.9203 17.0439 23.9625C17.2127 23.9625 17.3392 23.9625 17.508 23.9203C17.8033 23.8359 18.0564 23.6672 18.2252 23.4141C18.4783 23.0766 18.5205 22.6969 18.3517 22.3594C18.0564 21.7266 17.5502 21.3047 16.833 21.1359C16.9174 20.8406 17.0861 20.5875 17.297 20.3766C17.5924 20.1234 17.8877 20.0391 18.1408 19.9969C18.0986 20.7563 18.2674 21.5156 18.7314 21.9797C19.1533 22.4016 19.7861 22.4438 20.2502 22.1063C20.7564 21.7688 20.9252 21.1359 20.672 20.6297C20.3767 19.9969 19.7439 19.5328 19.0267 19.3219C19.1111 19.0688 19.2377 18.8156 19.3642 18.6469C19.6595 18.3516 19.997 18.1828 20.4189 18.1828C20.5455 18.1828 20.672 18.225 20.7986 18.225C20.7564 18.3938 20.7142 18.5625 20.672 18.6891C20.5877 19.2797 20.7564 19.8281 21.1783 20.25C21.6845 20.8406 22.3174 20.7563 22.697 20.4188C23.1611 19.9969 23.2877 19.1531 22.697 18.4781C22.5283 18.3938 22.233 18.1406 21.8533 17.9297ZM8.94392 25.0594C8.94392 25.1859 8.85954 25.2703 8.77517 25.3125C8.60642 25.3969 8.39548 25.3969 8.26892 25.3125C8.10017 25.1859 8.05798 24.975 8.05798 24.7641C8.05798 24.6375 8.14236 24.3 8.35329 23.9203C8.73298 24.2578 8.94392 24.6375 8.94392 25.0594ZM11.7705 24.3844C11.7705 24.7219 11.4752 24.7641 11.433 24.8062C11.3908 24.8484 11.0533 24.8484 10.9689 24.5531C10.8002 24.1734 10.9267 23.625 11.1377 23.1609C11.5174 23.4563 11.7705 23.9203 11.7705 24.3844ZM14.3017 24.2578C14.0908 24.3422 14.0064 24.1313 13.922 24.0047C13.7955 23.6672 13.8377 23.3297 14.0486 23.0344C14.0908 22.95 14.133 22.8656 14.2174 22.8234C14.4283 23.0766 14.5549 23.3719 14.597 23.4984C14.6814 23.9203 14.4705 24.2156 14.3017 24.2578ZM17.5502 22.7813C17.5924 22.9078 17.5502 22.9922 17.508 23.0766C17.3814 23.2031 17.2127 23.3297 17.0439 23.2875C16.833 23.2453 16.7064 23.0344 16.622 22.8656C16.5799 22.7391 16.5377 22.4016 16.5799 21.9797C17.0439 22.1062 17.3814 22.3594 17.5502 22.7813ZM19.9127 21.0094C20.0392 21.3047 19.7861 21.4734 19.7439 21.5156C19.7017 21.5578 19.4064 21.7266 19.1955 21.5156C18.9002 21.2203 18.7736 20.6719 18.8158 20.1656C19.2799 20.2922 19.7017 20.6297 19.9127 21.0094ZM22.1486 19.9547C21.9799 20.0813 21.8111 19.9969 21.7267 19.8703C21.5158 19.6172 21.3892 19.2797 21.4314 18.9422C21.4314 18.8578 21.4736 18.7734 21.4736 18.6469C21.7689 18.8156 21.9799 19.0266 22.0642 19.1109C22.4017 19.4906 22.2752 19.8281 22.1486 19.9547Z" fill="#FFD3BB"/>
</g>
<defs>
<clipPath id="clip0_424_357">
<rect width="27" height="27" fill="white"/>
</clipPath>
</defs>
</svg>
