<svg width="40" height="40" viewBox="0 0 40 40" fill="none" xmlns="http://www.w3.org/2000/svg">
<path d="M13.7502 30H26.2502V32.5H13.7502V30ZM16.2502 35H23.7502V37.5H16.2502V35ZM20.0002 2.5C16.685 2.5 13.5056 3.81696 11.1614 6.16117C8.81717 8.50537 7.50021 11.6848 7.50021 15C7.41568 16.8167 7.76368 18.6275 8.51558 20.2834C9.26748 21.9393 10.4018 23.393 11.8252 24.525C13.0752 25.6875 13.7502 26.35 13.7502 27.5H16.2502C16.2502 25.2 14.8627 23.9125 13.5127 22.675C12.3444 21.7803 11.4133 20.6128 10.8009 19.2748C10.1886 17.9368 9.91364 16.469 10.0002 15C10.0002 12.3478 11.0538 9.8043 12.9291 7.92893C14.8045 6.05357 17.348 5 20.0002 5C22.6524 5 25.1959 6.05357 27.0713 7.92893C28.9466 9.8043 30.0002 12.3478 30.0002 15C30.0853 16.4701 29.8085 17.9385 29.1939 19.2767C28.5793 20.6148 27.6458 21.7817 26.4752 22.675C25.1377 23.925 23.7502 25.175 23.7502 27.5H26.2502C26.2502 26.35 26.9127 25.6875 28.1752 24.5125C29.5976 23.3825 30.7314 21.9309 31.4833 20.2771C32.2352 18.6234 32.5838 16.8147 32.5002 15C32.5002 13.3585 32.1769 11.733 31.5487 10.2165C30.9205 8.69989 29.9998 7.3219 28.839 6.16117C27.6783 5.00043 26.3003 4.07969 24.7838 3.45151C23.2672 2.82332 21.6417 2.5 20.0002 2.5V2.5Z" fill="white"/>
</svg>
