<svg width="30" height="15" viewBox="0 0 30 15" fill="none" xmlns="http://www.w3.org/2000/svg">
<path d="M0.68123 0.924347C1.10317 0.572839 1.67536 0.375372 2.27198 0.375372C2.8686 0.375372 3.44079 0.572839 3.86273 0.924347L15.0002 10.2056L26.1377 0.924346C26.5621 0.5828 27.1304 0.39381 27.7204 0.398082C28.3103 0.402354 28.8747 0.599545 29.2918 0.947185C29.709 1.29483 29.9456 1.7651 29.9507 2.25672C29.9559 2.74834 29.7291 3.22197 29.3192 3.57559L16.591 14.1825C16.169 14.534 15.5968 14.7314 15.0002 14.7314C14.4036 14.7314 13.8314 14.534 13.4095 14.1825L0.68123 3.5756C0.25942 3.22398 0.0224604 2.74715 0.0224604 2.24997C0.0224604 1.75279 0.25942 1.27596 0.68123 0.924347Z" fill="#8C5F44"/>
</svg>
