<svg width="31" height="31" viewBox="0 0 31 31" fill="none" xmlns="http://www.w3.org/2000/svg">
<g clip-path="url(#clip0_424_486)">
<path d="M31.0052 24.1229C31.0052 22.6397 24.0859 21.4385 15.5546 21.4385C7.02137 21.4385 0.104492 22.6392 0.104492 24.1229C0.104492 25.6036 7.02185 26.8049 15.5546 26.8049C24.0859 26.8049 31.0052 25.6031 31.0052 24.1229Z" fill="#B0782C"/>
<path d="M27.1493 22.2484C27.1493 20.7652 22.1559 19.5659 15.999 19.5659C9.84209 19.5659 4.85352 20.7657 4.85352 22.2484C4.85352 23.7311 9.84451 24.9328 15.999 24.9328C22.1535 24.9328 27.1493 23.7311 27.1493 22.2484Z" fill="#825523"/>
<path d="M19.0356 2.68828C19.0356 4.17483 17.4754 5.3785 15.553 5.3785C13.6266 5.3785 12.0684 4.17531 12.0684 2.68828C12.0684 1.20367 13.6266 0 15.553 0C17.4754 0 19.0356 1.20319 19.0356 2.68828Z" fill="#FBB042"/>
<path d="M15.0056 2.06537C15.0056 1.28262 15.3834 0.569141 16.0005 0.02325C15.8524 0.00858913 15.7037 0.000830733 15.5549 0C13.6285 0 12.0703 1.20319 12.0703 2.68828C12.0703 4.17483 13.6285 5.3785 15.5549 5.3785C16.2626 5.3785 16.9223 5.21478 17.4721 4.93481C16.0218 4.46206 15.0056 3.35333 15.0056 2.06537Z" fill="#E09732"/>
<path d="M16.7639 22.7439V19.8279C16.7639 19.313 16.2243 18.894 15.5549 18.894C14.884 18.894 14.342 19.3125 14.342 19.8279V22.7439C13.0153 23.1236 12.0703 24.1069 12.0703 25.2621C12.0703 26.7487 13.6285 27.9523 15.5549 27.9523C17.4779 27.9523 19.0376 26.7492 19.0376 25.2621C19.0376 24.1074 18.0911 23.1236 16.7639 22.7439Z" fill="#FBB042"/>
<path d="M13.444 25.2602C13.444 24.105 14.391 23.1217 15.7157 22.742V19.826C15.7157 19.5078 15.9259 19.2244 16.2403 19.0564C16.0291 18.9463 15.794 18.8899 15.5559 18.8922C14.885 18.8922 14.343 19.3107 14.343 19.826V22.742C13.0163 23.1217 12.0713 24.105 12.0713 25.2602C12.0713 26.7468 13.6295 27.9504 15.5559 27.9504C15.7913 27.9504 16.0209 27.933 16.2427 27.8986C14.6453 27.6535 13.444 26.5661 13.444 25.2602Z" fill="#E09732"/>
<path d="M15.553 21.7329C20.8521 21.7329 25.7976 22.2342 29.984 23.0983C28.8617 21.9024 27.6527 19.5846 25.9439 14.0807C22.5532 3.15271 19.5143 4.01877 19.5143 4.01877C19.1155 3.91188 18.7129 3.81994 18.3072 3.74316C17.7323 3.59252 16.8395 3.43655 15.6635 3.44237C15.6267 3.44043 15.5903 3.44043 15.5535 3.44043C15.5148 3.44043 15.4785 3.44043 15.4421 3.44237C14.2656 3.43655 13.3748 3.59301 12.7965 3.74316C12.4109 3.81824 12.0113 3.90495 11.5913 4.01877C11.5913 4.01877 8.55577 3.15271 5.16223 14.0812C3.45336 19.5851 2.24145 21.9038 1.12109 23.1002C5.30658 22.2342 10.252 21.7329 15.553 21.7329Z" fill="#FBB042"/>
<path d="M11.8084 15.358C12.4681 4.13018 15.6616 4.53754 15.6616 4.53754C16.0285 4.37578 16.4009 4.22667 16.778 4.09046C17.1774 3.91954 17.5894 3.77962 18.0103 3.67196C17.4412 3.54893 16.6565 3.43898 15.6654 3.44237C15.6286 3.44043 15.5923 3.44043 15.5555 3.44043C15.5167 3.44043 15.4804 3.44043 15.4441 3.44237C14.2675 3.43655 13.3768 3.59301 12.7984 3.74316C12.4129 3.81824 12.0132 3.90495 11.5933 4.01877C11.5933 4.01877 8.55772 3.15271 5.16419 14.0812C3.45531 19.5851 2.24341 21.9038 1.12305 23.1002C4.10244 22.4831 7.46836 22.0569 11.0736 21.8583C11.3879 20.3582 11.6364 18.287 11.8084 15.358Z" fill="#E09732"/>
</g>
<defs>
<clipPath id="clip0_424_486">
<rect width="31" height="31" fill="white"/>
</clipPath>
</defs>
</svg>
