<svg width="25" height="25" viewBox="0 0 25 25" fill="none" xmlns="http://www.w3.org/2000/svg">
<g clip-path="url(#clip0_424_649)">
<path d="M12.5 24.2188C18.9721 24.2188 24.2188 22.0152 24.2188 19.2969C24.2188 16.5786 18.9721 14.375 12.5 14.375C6.02791 14.375 0.78125 16.5786 0.78125 19.2969C0.78125 22.0152 6.02791 24.2188 12.5 24.2188Z" fill="#D0D0D0"/>
<path d="M3.00781 9.6875V18.4766C3.00781 20.7031 7.26562 22.5 12.5 22.5C17.7344 22.5 21.9922 20.7031 21.9922 18.5156V9.6875H3.00781Z" fill="#D3976E"/>
<path d="M21.9922 12.2656C21.9531 13.8281 15.9766 15.5469 12.5 15.5469C9.02344 15.5469 3.04688 13.8281 3.00781 12.2656V14.6484C7.89062 18.1641 17.1094 18.1641 21.9922 14.6484V12.2656Z" fill="#FFDD7D"/>
<path d="M21.9922 16.0156C21.9531 17.5781 15.9766 19.2969 12.5 19.2969C9.02344 19.2969 3.04688 17.5781 3.00781 16.0156V18.3984C7.89062 21.9141 17.1094 21.9141 21.9922 18.3984V16.0156Z" fill="#FFDD7D"/>
<path d="M3.00781 9.6875V16.2891C3.00781 16.6406 3.32031 16.9531 3.75 16.9531C4.14063 16.9531 4.49219 16.6797 4.49219 16.2891V14.7656C4.49219 14.2969 4.92188 13.9062 5.46875 13.9062C6.01562 13.9062 6.44531 14.2969 6.44531 14.7656V16.6406C6.44531 17.1875 6.95312 17.6563 7.57812 17.6563C8.20312 17.6563 8.71094 17.2266 8.71094 16.6406V14.7266C8.71094 14.2188 9.17969 13.8281 9.72656 13.8281C10.2734 13.8281 10.7422 14.2188 10.7422 14.7266V15.9375C10.7422 16.2109 10.9766 16.4453 11.3281 16.4453C11.6406 16.4453 11.9141 16.2109 11.9141 15.9375V14.9609C11.9141 14.6094 12.2266 14.2969 12.6562 14.2969C13.0469 14.2969 13.3984 14.5703 13.3984 14.9609V16.6016C13.3984 17.1484 13.9062 17.6172 14.5312 17.6172C15.1562 17.6172 15.6641 17.1875 15.6641 16.6016V14.7656C15.6641 14.2969 16.0937 13.9062 16.6406 13.9062C17.1875 13.9062 17.6172 14.2969 17.6172 14.7656V16.1328C17.6172 16.4062 17.8906 16.6406 18.2031 16.6406C18.5156 16.6406 18.7891 16.4062 18.7891 16.1328V15.1953C18.7891 14.9609 19.0234 14.7656 19.2969 14.7656C19.5703 14.7656 19.8047 14.9609 19.8047 15.1953V16.6406C19.8047 17.1875 20.3125 17.6563 20.9375 17.6563C21.5625 17.6563 22.0703 17.2266 22.0703 16.6406V9.72656L3.00781 9.6875Z" fill="#A80038"/>
<path d="M12.5 13.6719C17.7424 13.6719 21.9922 11.888 21.9922 9.6875C21.9922 7.48699 17.7424 5.70312 12.5 5.70312C7.25761 5.70312 3.00781 7.48699 3.00781 9.6875C3.00781 11.888 7.25761 13.6719 12.5 13.6719Z" fill="#FF2C68"/>
<path d="M5.62488 9.29697C5.58581 6.7579 16.8358 6.40634 16.8749 8.67197C16.9139 10.3517 9.72644 10.4298 9.68738 9.10165C9.64831 8.16415 14.1405 8.12509 14.1405 8.82822C14.1405 9.53134 10.5077 9.64853 11.3671 8.75009C9.92175 9.84384 14.5311 9.88291 14.4921 8.86728C14.453 7.69541 9.06238 7.85166 9.06238 9.06259C9.10144 10.8595 17.4218 10.6642 17.3827 8.63291C17.3436 5.97666 4.88269 6.09384 4.96082 9.25791C5.03894 12.7345 17.1483 13.9845 21.0936 9.57041C15.7421 13.6329 5.66394 11.6798 5.62488 9.29697Z" fill="#FFA4A4"/>
<path d="M4.60938 4.53125V8.75C4.60938 9.33594 5.85937 9.25781 5.85937 8.75V4.53125C5.85937 3.94531 4.60938 3.94531 4.60938 4.53125Z" fill="#42ADE2"/>
<path d="M5.85937 4.92188L4.60938 5.58594V6.32813L5.85937 5.70312V4.92188ZM4.60938 7.61719V8.32031L5.85937 7.69531V6.95312L4.60938 7.61719Z" fill="#428BC1"/>
<path d="M5.89844 3.59375C5.89844 4.57031 4.60938 4.57031 4.60938 3.59375C4.60938 3.28125 5.27344 2.26562 5.27344 2.26562C5.27344 2.26562 5.89844 3.28125 5.89844 3.59375Z" fill="#FF8B00"/>
<path d="M5.58594 3.90625C5.58594 4.45312 4.92188 4.45312 4.92188 3.90625C4.92188 3.75 5.23437 3.24219 5.23437 3.24219C5.23437 3.24219 5.58594 3.75 5.58594 3.90625Z" fill="#FFF033"/>
<path d="M11.9531 2.8125V6.48438C11.9531 7.07031 13.0469 6.95313 13.0469 6.48438V2.8125C13.0469 2.22656 11.9531 2.22656 11.9531 2.8125Z" fill="#42ADE2"/>
<path d="M13.0469 3.125L11.9531 3.71094V4.375L13.0469 3.78906V3.125ZM11.9531 5.46875V6.09375L13.0469 5.54688V4.92188L11.9531 5.46875Z" fill="#428BC1"/>
<path d="M13.0469 1.95312C13.0469 2.85156 11.9141 2.85156 11.9141 1.95312C11.9141 1.67969 12.4609 0.78125 12.4609 0.78125C12.4609 0.78125 13.0469 1.67969 13.0469 1.95312Z" fill="#FF8B00"/>
<path d="M12.7734 2.22656C12.7734 2.77344 12.2266 2.77344 12.2266 2.22656C12.2266 2.07031 12.5 1.64062 12.5 1.64062C12.5 1.64062 12.7734 2.07031 12.7734 2.22656Z" fill="#FFF033"/>
<path d="M19.1016 4.53125V8.75C19.1016 9.33594 20.3516 9.25781 20.3516 8.75V4.53125C20.3516 3.94531 19.1016 3.94531 19.1016 4.53125Z" fill="#42ADE2"/>
<path d="M20.3516 4.92188L19.1016 5.58594V6.32813L20.3516 5.66406V4.92188ZM19.1016 7.61719V8.32031L20.3516 7.65625V6.95312L19.1016 7.61719Z" fill="#428BC1"/>
<path d="M20.3906 3.59375C20.3906 4.57031 19.1016 4.57031 19.1016 3.59375C19.1016 3.28125 19.7656 2.26562 19.7656 2.26562C19.7656 2.26562 20.3906 3.24219 20.3906 3.59375Z" fill="#FF8B00"/>
<path d="M20.0781 3.86719C20.0781 4.41406 19.4141 4.41406 19.4141 3.86719C19.4141 3.71094 19.7266 3.20312 19.7266 3.20312C19.7266 3.20312 20.0781 3.71094 20.0781 3.86719Z" fill="#FFF033"/>
<path d="M7.8125 7.14844V12.2656C7.8125 12.9297 9.33594 12.7734 9.33594 12.2656V7.14844C9.33594 6.52344 7.8125 6.52344 7.8125 7.14844Z" fill="#9FE4FF"/>
<path d="M9.33594 7.65625L7.8125 8.39844V9.33594L9.33594 8.55469V7.65625ZM7.8125 10.8594V11.7188L9.33594 10.9766V10.1172L7.8125 10.8594Z" fill="#42ADE2"/>
<path d="M9.375 6.01562C9.375 7.07031 7.8125 7.07031 7.8125 6.01562C7.8125 5.625 8.59375 4.375 8.59375 4.375C8.59375 4.375 9.375 5.625 9.375 6.01562Z" fill="#FF8B00"/>
<path d="M8.98438 6.36719C8.98438 6.95312 8.20312 6.95312 8.20312 6.36719C8.20312 6.17187 8.59375 5.54688 8.59375 5.54688C8.59375 5.54688 8.98438 6.17187 8.98438 6.36719Z" fill="#FFF033"/>
<path d="M15.625 7.14844V12.2656C15.625 12.9297 17.1484 12.7734 17.1484 12.2656V7.14844C17.1484 6.48438 15.625 6.48438 15.625 7.14844Z" fill="#9FE4FF"/>
<path d="M17.1484 7.61719L15.625 8.39844V9.29687L17.1484 8.55469V7.61719ZM15.625 10.8594V11.7188L17.1484 10.9375V10.0781L15.625 10.8594Z" fill="#42ADE2"/>
<path d="M17.1875 5.97656C17.1875 7.03125 15.625 7.03125 15.625 5.97656C15.625 5.58594 16.4062 4.33594 16.4062 4.33594C16.4062 4.33594 17.1875 5.625 17.1875 5.97656Z" fill="#FF8B00"/>
<path d="M16.7969 6.36719C16.7969 6.95312 16.0156 6.95312 16.0156 6.36719C16.0156 6.17187 16.4062 5.54688 16.4062 5.54688C16.4062 5.54688 16.7969 6.17187 16.7969 6.36719Z" fill="#FFF033"/>
</g>
<defs>
<clipPath id="clip0_424_649">
<rect width="25" height="25" fill="white"/>
</clipPath>
</defs>
</svg>
