<svg width="27" height="27" viewBox="0 0 27 27" fill="none" xmlns="http://www.w3.org/2000/svg">
<g clip-path="url(#clip0_424_262)">
<path d="M26.8847 0.747869C27.1017 1.27202 27.0124 1.71946 26.6166 2.0902L17.1765 11.544V25.7727C17.1765 26.3097 16.9276 26.6868 16.4297 26.9041C16.2637 26.968 16.1042 27 15.951 27C15.6063 27 15.3191 26.8786 15.0893 26.6357L10.1873 21.7266C9.94479 21.4837 9.82351 21.196 9.82351 20.8636V11.544L0.383366 2.0902C-0.0123666 1.71946 -0.101726 1.27202 0.115289 0.747869C0.332304 0.24929 0.708889 0 1.24504 0H25.755C26.2911 0 26.6677 0.24929 26.8847 0.747869Z" fill="#8C5F44"/>
</g>
<defs>
<clipPath id="clip0_424_262">
<rect width="27" height="27" fill="white"/>
</clipPath>
</defs>
</svg>
