<svg width="27" height="27" viewBox="0 0 27 27" fill="none" xmlns="http://www.w3.org/2000/svg">
<path d="M21.0518 3.71244C16.9174 -1.77193 5.18927 2.32026 4.30333 1.94057C4.30333 1.94057 4.17677 2.74213 4.64083 3.24838C4.0502 3.67026 3.33302 2.95307 3.33302 2.95307C3.33302 2.95307 2.57364 4.72494 3.3752 5.82182C2.10958 7.46713 3.62833 16.0312 3.62833 16.0312H22.9924C22.9924 16.0312 25.3127 9.36557 22.6549 4.76713C22.1065 3.71244 21.5158 4.34526 21.0518 3.71244Z" fill="#DBB471"/>
<path d="M23.2029 12.4875C23.1186 12.9516 23.0342 13.3734 22.9076 13.6266C22.6967 14.0484 22.2326 14.3016 22.2326 14.3016C22.2326 14.3016 22.3592 13.4156 22.317 12.15C21.7264 3.67032 19.2373 7.72032 13.4998 7.72032C7.7623 7.72032 5.27324 3.67032 4.7248 12.1922C4.68262 13.4156 4.80918 14.3438 4.80918 14.3438C4.80918 14.3438 4.34512 14.0906 4.13418 13.6688C4.00762 13.4156 3.92324 12.9938 3.83887 12.5297C3.07949 12.3188 2.15137 12.4875 2.15137 14.7234C2.15137 16.1156 2.65762 17.2125 4.30293 17.3391C5.02012 22.9078 6.28574 23.7938 10.4623 25.7766C11.517 26.2828 12.2342 26.1563 13.4998 26.1563C14.7654 26.1563 15.4826 26.2828 16.5795 25.7766C20.7982 23.7938 22.0639 22.9078 22.7389 17.3391C24.3842 17.2125 24.8904 16.0734 24.8904 14.7234C24.8904 12.4875 23.9201 12.3188 23.2029 12.4875Z" fill="#FFDD67"/>
<path d="M17.2969 20.6297C17.2969 22.0641 15.3984 22.7812 13.5 22.7812C11.6016 22.7812 9.70312 22.0641 9.70312 20.6297C9.70312 20.6297 9.70312 20.25 10.0828 20.25H16.9172C17.2969 20.25 17.2969 20.6297 17.2969 20.6297Z" fill="#937237"/>
<path d="M8.4375 12.0657C6.32812 12.0657 5.48438 12.825 5.48438 13.5844C5.48438 14.3438 5.48438 15.4407 8.26875 15.4407C10.9688 15.4407 11.3906 15.1032 11.3906 13.9641C11.3906 13.2047 10.5469 12.0657 8.4375 12.0657Z" fill="#F5F5F5"/>
<path d="M8.64844 15.2297C9.69692 15.2297 10.5469 14.3798 10.5469 13.3313C10.5469 12.2828 9.69692 11.4329 8.64844 11.4329C7.59996 11.4329 6.75 12.2828 6.75 13.3313C6.75 14.3798 7.59996 15.2297 8.64844 15.2297Z" fill="#0A84A5"/>
<path d="M9.28125 13.3313C9.28125 13.6688 8.98594 13.9641 8.64844 13.9641C8.31094 13.9641 8.01562 13.6688 8.01562 13.3313C8.01562 12.9938 8.31094 12.6985 8.64844 12.6985C8.98594 12.6985 9.28125 12.9938 9.28125 13.3313Z" fill="#231F20"/>
<path d="M5.48438 13.5422C5.48438 10.5891 11.3906 10.5891 11.3906 13.9641C10.5469 11.4328 6.32812 11.4328 5.48438 13.5422Z" fill="#664E27"/>
<path d="M18.5625 12.0657C20.6719 12.0657 21.5156 12.825 21.5156 13.5844C21.5156 14.3438 21.5156 15.4407 18.7313 15.4407C16.0313 15.4407 15.6094 15.1032 15.6094 13.9641C15.6094 13.2047 16.4531 12.0657 18.5625 12.0657Z" fill="#F5F5F5"/>
<path d="M18.3516 15.2297C19.4 15.2297 20.25 14.3798 20.25 13.3313C20.25 12.2828 19.4 11.4329 18.3516 11.4329C17.3031 11.4329 16.4531 12.2828 16.4531 13.3313C16.4531 14.3798 17.3031 15.2297 18.3516 15.2297Z" fill="#0A84A5"/>
<path d="M17.7188 13.3313C17.7188 13.6688 18.0141 13.9641 18.3516 13.9641C18.6891 13.9641 18.9844 13.6688 18.9844 13.3313C18.9844 12.9938 18.6891 12.6985 18.3516 12.6985C18.0141 12.6985 17.7188 12.9938 17.7188 13.3313Z" fill="#231F20"/>
<path d="M21.5156 13.5422C21.5156 10.5891 15.6094 10.5891 15.6094 13.9641C16.4531 11.4328 20.6719 11.4328 21.5156 13.5422Z" fill="#664E27"/>
<path d="M13.4998 18.9844C11.7279 18.9844 10.842 17.7188 11.7279 17.7188H15.2717C16.1576 17.7188 15.2717 18.9844 13.4998 18.9844Z" fill="#EBA352"/>
</svg>
