<svg width="195" height="195" viewBox="0 0 195 195" fill="none" xmlns="http://www.w3.org/2000/svg">
<g filter="url(#filter0_d_118_282)">
<rect x="22" y="18" width="151" height="151" rx="30" fill="white"/>
</g>
<g clip-path="url(#clip0_118_282)">
<path d="M103.724 73.0945L103.688 73.186C102.982 74.9775 101.973 76.6338 100.704 78.082L100.782 77.9867C99.547 79.3984 97.9717 80.4712 96.2057 81.1035L96.1904 81.1077C94.5048 81.7363 92.5812 81.7657 90.7674 81.0497L90.6256 80.9937L90.6315 80.996C88.244 80.0376 86.3289 78.1792 85.2993 75.8215C84.1178 73.3893 83.5054 70.7201 83.5084 68.0162L83.5143 67.8887C83.4948 65.3245 83.9564 62.7793 84.8751 60.3852L84.9159 60.2818C85.6436 58.4385 86.6641 56.7962 87.9003 55.3859L87.8217 55.4812C89.0569 54.0695 90.6321 52.9966 92.3982 52.3643L92.4135 52.3601C94.2226 51.6861 96.221 51.7298 97.9989 52.4823L97.99 52.4788C100.38 53.434 102.296 55.2935 103.322 57.6533C104.485 60.0781 105.089 62.733 105.09 65.4222L105.084 65.5497C105.122 67.9544 104.679 70.5554 103.713 73.0798L103.709 73.0886L103.724 73.0945ZM79.1331 89.1581L79.0381 89.4074C78.1647 91.6302 76.6226 93.5268 74.6248 94.8353L74.6624 94.8092C73.7457 95.4203 72.6948 95.8006 71.5992 95.9175C70.5037 96.0344 69.3962 95.8844 68.3711 95.4804L68.081 95.3591L68.0958 95.3649C65.6851 94.3824 63.7189 92.5492 62.5702 90.2131L62.5756 90.2255C61.3141 87.8405 60.5679 85.2171 60.3853 82.5252C60.2028 79.8334 60.588 77.1332 61.516 74.5998L61.5253 74.5761L61.618 74.3327C62.5334 72.0139 64.109 70.1502 66.0429 68.8753L66.0053 68.9014C66.9642 68.2526 68.0728 67.8594 69.2262 67.7591C70.3796 67.6587 71.5395 67.8545 72.596 68.3279L72.5812 68.3221C74.992 69.3045 76.9582 71.1377 78.1068 73.4739L78.1014 73.4615C79.3621 75.8573 80.1058 78.491 80.2845 81.1923C80.4632 83.8936 80.073 86.6024 79.1389 89.1433L79.1307 89.164L79.1331 89.1581ZM97.8246 95.0961C102.044 97.034 105.55 100.246 107.849 104.281L107.821 104.232C110.787 108.786 112.894 113.844 114.04 119.156L114.075 119.344C115.262 123.74 115.136 128.387 113.711 132.711L113.691 132.771L113.595 133.031C113.124 134.224 112.386 135.237 111.479 136.023L111.512 135.991C110.657 136.703 109.597 137.121 108.487 137.184L108.453 137.184C107.431 137.255 106.302 137.182 105.186 136.949L105.111 136.93C103.953 136.672 102.817 136.321 101.714 135.883L101.493 135.795L101.505 135.8C98.5405 134.397 95.8408 132.493 93.5247 130.171L93.6692 130.307C91.4827 128.112 88.9431 126.301 86.1565 124.947L86.0672 124.905C82.7134 123.861 79.4052 123.402 76.1453 123.443L76.3712 123.451C72.981 123.471 69.61 122.94 66.3898 121.88L66.3059 121.85C60.6603 119.626 58.7241 116.268 60.4974 111.776C61.8679 108.679 63.9839 105.969 66.6564 103.889L66.5712 103.958C69.5825 101.39 72.9358 99.2526 76.5351 97.6073L76.5186 97.6144C80.0416 95.9938 83.7772 94.883 87.6133 94.3154L87.8349 94.2902C91.1612 93.6785 94.5897 93.9479 97.7797 95.0715L97.8152 95.0855L97.8246 95.0961ZM112.702 89.7123L112.567 89.6587C110.824 88.9729 109.397 87.6652 108.563 85.9885L108.566 85.9968C107.712 84.3498 107.291 82.5127 107.342 80.6581L107.346 80.5778C107.412 78.6944 107.802 76.8364 108.5 75.0857L108.538 74.9882L108.536 74.9941C109.56 72.4789 111.012 70.2797 112.78 68.4376L112.682 68.5489C114.531 66.5445 116.811 64.986 119.35 63.9908L119.365 63.9866C121.726 62.9673 124.394 62.9188 126.79 63.8516L126.929 63.9064C128.743 64.6224 130.126 65.9608 130.933 67.5765L130.929 67.5683C131.776 69.2104 132.208 71.0402 132.154 72.907L132.15 72.9872C132.105 74.7519 131.727 76.6615 130.995 78.5166L130.971 78.5756L130.972 78.5727C129.986 80.9979 128.549 83.2145 126.738 85.1055L126.836 84.9942C124.981 87.0112 122.686 88.574 120.13 89.5614L120.114 89.5685C117.752 90.5825 115.087 90.6289 112.691 89.6976L112.688 89.6965L112.702 89.7123ZM134.536 92.7865L134.81 92.8878C136.969 93.7403 138.448 95.5736 138.936 97.675L138.943 97.7015C139.494 100.021 139.317 102.453 138.436 104.668L138.332 104.921L138.337 104.909C137.289 107.393 135.731 109.63 133.762 111.473C131.794 113.315 129.461 114.724 126.913 115.607L126.881 115.618C124.452 116.535 121.771 116.529 119.345 115.603L119.339 115.601C118.253 115.228 117.28 114.586 116.509 113.735C115.738 112.885 115.194 111.853 114.929 110.736L114.923 110.709C114.345 108.31 114.555 105.788 115.523 103.517L115.518 103.528C116.568 101.035 118.129 98.7889 120.101 96.9361C122.072 95.0832 124.411 93.6646 126.965 92.7717L126.997 92.7604C129.422 91.8481 132.098 91.8538 134.519 92.7765L134.525 92.7788L134.536 92.7865Z" fill="#FF995C"/>
</g>
<defs>
<filter id="filter0_d_118_282" x="0" y="0" width="195" height="195" filterUnits="userSpaceOnUse" color-interpolation-filters="sRGB">
<feFlood flood-opacity="0" result="BackgroundImageFix"/>
<feColorMatrix in="SourceAlpha" type="matrix" values="0 0 0 0 0 0 0 0 0 0 0 0 0 0 0 0 0 0 127 0" result="hardAlpha"/>
<feOffset dy="4"/>
<feGaussianBlur stdDeviation="11"/>
<feComposite in2="hardAlpha" operator="out"/>
<feColorMatrix type="matrix" values="0 0 0 0 0 0 0 0 0 0 0 0 0 0 0 0 0 0 0.25 0"/>
<feBlend mode="normal" in2="BackgroundImageFix" result="effect1_dropShadow_118_282"/>
<feBlend mode="normal" in="SourceGraphic" in2="effect1_dropShadow_118_282" result="shape"/>
</filter>
<clipPath id="clip0_118_282">
<rect width="82.5714" height="76.2198" fill="white" transform="translate(73.9873 43) rotate(21.5425)"/>
</clipPath>
</defs>
</svg>
