<svg width="52" height="52" viewBox="0 0 52 52" fill="none" xmlns="http://www.w3.org/2000/svg">
<path d="M44.3828 6.09375H31.5859C31.4184 6.09375 31.2812 6.23086 31.2812 6.39844V9.24219C31.2812 9.40977 31.4184 9.54688 31.5859 9.54688H39.7313L29.6105 19.6676C27.0715 17.7125 23.9738 16.6562 20.7188 16.6562C16.8137 16.6562 13.1371 18.1797 10.3797 20.9422C7.62227 23.7047 6.09375 27.3762 6.09375 31.2812C6.09375 35.1863 7.61719 38.8629 10.3797 41.6203C13.1371 44.3828 16.8137 45.9062 20.7188 45.9062C24.6238 45.9062 28.3004 44.3828 31.0578 41.6203C33.8203 38.8629 35.3438 35.1863 35.3438 31.2812C35.3438 28.0262 34.2875 24.9387 32.3375 22.3996L42.4531 12.284V20.4141C42.4531 20.5816 42.5902 20.7188 42.7578 20.7188H45.6016C45.7691 20.7188 45.9062 20.5816 45.9062 20.4141V7.61719C45.9062 6.7793 45.2207 6.09375 44.3828 6.09375ZM20.7188 42.0469C14.7824 42.0469 9.95312 37.2176 9.95312 31.2812C9.95312 25.3449 14.7824 20.5156 20.7188 20.5156C26.6551 20.5156 31.4844 25.3449 31.4844 31.2812C31.4844 37.2176 26.6551 42.0469 20.7188 42.0469Z" fill="white"/>
</svg>
