<svg width="49" height="49" viewBox="0 0 49 49" fill="none" xmlns="http://www.w3.org/2000/svg">
<path d="M14.2918 32.6666V34.7083C14.2918 35.2867 14.4871 35.7713 14.8778 36.1619C15.2698 36.5539 15.755 36.7499 16.3335 36.7499C16.912 36.7499 17.3972 36.5539 17.7892 36.1619C18.1798 35.7713 18.3752 35.2867 18.3752 34.7083V32.6666H20.4168C20.9953 32.6666 21.4805 32.4706 21.8725 32.0786C22.2632 31.6879 22.4585 31.2034 22.4585 30.6249C22.4585 30.0464 22.2632 29.5612 21.8725 29.1692C21.4805 28.7786 20.9953 28.5833 20.4168 28.5833H18.3752V26.5416C18.3752 25.9631 18.1798 25.4779 17.7892 25.0859C17.3972 24.6952 16.912 24.4999 16.3335 24.4999C15.755 24.4999 15.2698 24.6952 14.8778 25.0859C14.4871 25.4779 14.2918 25.9631 14.2918 26.5416V28.5833H12.2502C11.6717 28.5833 11.1865 28.7786 10.7945 29.1692C10.4038 29.5612 10.2085 30.0464 10.2085 30.6249C10.2085 31.2034 10.4038 31.6879 10.7945 32.0786C11.1865 32.4706 11.6717 32.6666 12.2502 32.6666H14.2918ZM37.2606 29.6041C37.7029 29.6041 38.0691 29.4591 38.359 29.1692C38.6475 28.8807 38.7918 28.5152 38.7918 28.0728C38.7918 27.6305 38.6475 27.2643 38.359 26.9744C38.0691 26.6859 37.7029 26.5416 37.2606 26.5416H28.0731C27.6307 26.5416 27.2653 26.6859 26.9767 26.9744C26.6868 27.2643 26.5418 27.6305 26.5418 28.0728C26.5418 28.5152 26.6868 28.8807 26.9767 29.1692C27.2653 29.4591 27.6307 29.6041 28.0731 29.6041H37.2606ZM33.1772 35.7291C33.6196 35.7291 33.9857 35.5848 34.2757 35.2962C34.5642 35.0063 34.7085 34.6402 34.7085 34.1978C34.7085 33.7555 34.5642 33.3893 34.2757 33.0994C33.9857 32.8109 33.6196 32.6666 33.1772 32.6666H28.0731C27.6307 32.6666 27.2653 32.8109 26.9767 33.0994C26.6868 33.3893 26.5418 33.7555 26.5418 34.1978C26.5418 34.6402 26.6868 35.0063 26.9767 35.2962C27.2653 35.5848 27.6307 35.7291 28.0731 35.7291H33.1772ZM30.6252 14.2916H40.8335C41.9564 14.2916 42.918 14.6911 43.7184 15.49C44.5173 16.2904 44.9168 17.252 44.9168 18.3749V40.8332C44.9168 41.9562 44.5173 42.9178 43.7184 43.7181C42.918 44.5171 41.9564 44.9166 40.8335 44.9166H8.16683C7.04391 44.9166 6.08297 44.5171 5.284 43.7181C4.48366 42.9178 4.0835 41.9562 4.0835 40.8332V18.3749C4.0835 17.252 4.48366 16.2904 5.284 15.49C6.08297 14.6911 7.04391 14.2916 8.16683 14.2916H18.3752V8.16658C18.3752 7.04367 18.7753 6.08204 19.5757 5.28171C20.3746 4.48274 21.3356 4.08325 22.4585 4.08325H26.5418C27.6647 4.08325 28.6264 4.48274 29.4267 5.28171C30.2257 6.08204 30.6252 7.04367 30.6252 8.16658V14.2916ZM22.4585 18.3749H26.5418V8.16658H22.4585V18.3749ZM18.3752 18.3749H8.16683V40.8332H40.8335V18.3749H30.6252C30.6252 19.4978 30.2257 20.4588 29.4267 21.2577C28.6264 22.0581 27.6647 22.4583 26.5418 22.4583H22.4585C21.3356 22.4583 20.3746 22.0581 19.5757 21.2577C18.7753 20.4588 18.3752 19.4978 18.3752 18.3749Z" fill="white"/>
</svg>
