<svg width="25" height="25" viewBox="0 0 25 25" fill="none" xmlns="http://www.w3.org/2000/svg">
<g clip-path="url(#clip0_424_517)">
<path d="M22.2656 2.73437C19.6484 0.117187 15.4297 0.117187 12.8516 2.73437C10.7031 4.88281 10.3516 8.125 11.6797 10.6641L2.14844 20.3125L0.78125 23.5938L1.40625 24.2188L3.86719 23.9844L14.3359 13.3594C16.875 14.7656 20.1172 14.375 22.2266 12.2266C24.8828 9.60938 24.8828 5.35156 22.2656 2.73437ZM20.3906 7.5C19.6094 8.28125 18.3203 8.28125 17.5391 7.5C16.7578 6.71875 16.7578 5.42969 17.5391 4.60938C18.3203 3.82812 19.6094 3.82812 20.3906 4.60938C21.2109 5.39062 21.2109 6.67969 20.3906 7.5Z" fill="#979797"/>
<path d="M6.17232 22.4609L6.71919 21.875V21.0937L3.86763 23.9844L5.58638 23.7891L6.17232 23.2031V22.4609ZM10.1958 18.3594L10.7426 17.7734V16.9922L7.30513 20.5078H8.08638L8.63325 19.9219H9.4145L10.1958 19.1406V18.3594ZM11.9145 12.3438C12.1098 12.1484 11.9926 12.0703 11.9145 11.9531C11.7973 11.8359 11.7583 11.7188 11.5629 11.9531L3.08638 20.5078C2.89107 20.7031 3.00825 20.7812 3.08638 20.8984C3.20357 21.0156 3.24263 21.1328 3.43794 20.8984L11.9145 12.3438ZM13.0864 13.5156C13.2817 13.3203 13.1645 13.2422 13.0864 13.125C12.9692 13.0078 12.9301 12.8906 12.7348 13.125L4.21919 21.6797C4.02388 21.875 4.14107 21.9531 4.21919 22.0703C4.33638 22.1875 4.37544 22.3047 4.57075 22.0703L13.0864 13.5156ZM21.8754 3.125C19.4926 0.742188 15.6254 0.742188 13.2426 3.125C11.4458 4.92187 11.0161 7.57812 11.9145 9.80469C11.0942 7.69531 11.5629 5.23437 13.2426 3.55469C15.5083 1.25 19.2192 1.25 21.4848 3.51562C23.7504 5.82031 23.7504 9.53125 21.4848 11.7969C19.8051 13.4766 17.3442 13.9062 15.2739 13.125C17.5004 14.0234 20.1176 13.5938 21.9145 11.7969C24.2583 9.41406 24.2583 5.50781 21.8754 3.125Z" fill="black"/>
<line x1="-2.93934" y1="-3.06066" x2="26.0607" y2="25.9393" stroke="#FF0000" stroke-width="3"/>
</g>
<defs>
<clipPath id="clip0_424_517">
<rect width="25" height="25" fill="white"/>
</clipPath>
</defs>
</svg>
