<svg width="15" height="26" viewBox="0 0 15 26" fill="none" xmlns="http://www.w3.org/2000/svg">
<path d="M0.924346 24.9325C0.572838 24.5809 0.375371 24.104 0.375371 23.6068C0.375371 23.1097 0.572838 22.6328 0.924346 22.2812L10.2056 13L0.924348 3.71872C0.582802 3.36509 0.393812 2.89146 0.398085 2.39984C0.402356 1.90822 0.599548 1.43795 0.947189 1.09031C1.29483 0.742667 1.7651 0.545478 2.25672 0.541205C2.74834 0.536935 3.22197 0.725924 3.5756 1.06747L14.1825 11.6743C14.534 12.026 14.7314 12.5028 14.7314 13C14.7314 13.4972 14.534 13.974 14.1825 14.3256L3.57559 24.9325C3.22398 25.284 2.74715 25.4814 2.24997 25.4814C1.75279 25.4814 1.27596 25.284 0.924346 24.9325Z" fill="#43210D"/>
</svg>
