<svg width="25" height="25" viewBox="0 0 25 25" fill="none" xmlns="http://www.w3.org/2000/svg">
<g clip-path="url(#clip0_424_600)">
<path d="M9.21875 14.3359H1.13281L5.15625 4.10156L9.21875 14.3359ZM2.1875 13.5938H8.16406L5.15625 5.97656L2.1875 13.5938ZM23.8672 14.3359H15.7812L19.8047 4.10156L23.8672 14.3359ZM16.8359 13.5938H22.8125L19.8047 5.97656L16.8359 13.5938Z" fill="#D0D0D0"/>
<path d="M19.6484 3.98438C19.6484 3.98438 18.7891 3.67187 18.3203 3.47656C16.6406 2.77344 14.5703 1.95312 12.5 1.95312C10.4297 1.95312 8.35938 2.8125 6.67969 3.51562C6.21094 3.71094 5.35156 4.02344 5.35156 4.02344L4.0625 5C4.0625 5 5.11719 5.66406 5.625 5.46875C6.05469 5.3125 6.48437 5.11719 6.99219 4.92188C8.59375 4.25781 10.5859 3.4375 12.5 3.4375C14.4141 3.4375 16.4062 4.25781 18.0078 4.92188C18.4766 5.11719 18.9453 5.3125 19.375 5.46875C19.9219 5.66406 20.9375 5 20.9375 5L19.6484 3.98438Z" fill="#B8C2C4"/>
<path d="M0.78125 13.5938C0.78125 16.0156 2.73438 17.9688 5.15625 17.9688C7.57812 17.9688 9.53125 16.0156 9.53125 13.5938H0.78125ZM15.4297 13.5938C15.4297 16.0156 17.3828 17.9688 19.8047 17.9688C22.2266 17.9688 24.2188 16.0156 24.2188 13.5938H15.4297Z" fill="#428BC1"/>
<path d="M11.7578 4.80469H13.2422V20.8984H11.7578V4.80469Z" fill="#B8C2C4"/>
<path d="M11.3281 7.26562H13.7109V20.8984H11.3281V7.26562Z" fill="#D0D0D0"/>
<path d="M10.8203 14.3359H14.1797V22.0313H10.8203V14.3359Z" fill="#545B60"/>
<path d="M5.15625 6.64063C5.97605 6.64063 6.64063 5.97605 6.64063 5.15625C6.64063 4.33645 5.97605 3.67188 5.15625 3.67188C4.33645 3.67188 3.67188 4.33645 3.67188 5.15625C3.67188 5.97605 4.33645 6.64063 5.15625 6.64063Z" fill="#DBB471"/>
<path d="M19.8437 6.64063C20.6635 6.64063 21.3281 5.97605 21.3281 5.15625C21.3281 4.33645 20.6635 3.67188 19.8437 3.67188C19.024 3.67188 18.3594 4.33645 18.3594 5.15625C18.3594 5.97605 19.024 6.64063 19.8437 6.64063Z" fill="#545B60"/>
<path d="M5.15625 6.64063C5.97605 6.64063 6.64063 5.97605 6.64063 5.15625C6.64063 4.33645 5.97605 3.67188 5.15625 3.67188C4.33645 3.67188 3.67188 4.33645 3.67188 5.15625C3.67188 5.97605 4.33645 6.64063 5.15625 6.64063Z" fill="#545B60"/>
<path d="M5.15625 5.89844C5.56615 5.89844 5.89844 5.56615 5.89844 5.15625C5.89844 4.74635 5.56615 4.41406 5.15625 4.41406C4.74635 4.41406 4.41406 4.74635 4.41406 5.15625C4.41406 5.56615 4.74635 5.89844 5.15625 5.89844Z" fill="white"/>
<path d="M19.8437 5.89844C20.2536 5.89844 20.5859 5.56615 20.5859 5.15625C20.5859 4.74635 20.2536 4.41406 19.8437 4.41406C19.4339 4.41406 19.1016 4.74635 19.1016 5.15625C19.1016 5.56615 19.4339 5.89844 19.8437 5.89844Z" fill="white"/>
<path d="M12.5 5.15625C13.7081 5.15625 14.6875 4.17687 14.6875 2.96875C14.6875 1.76063 13.7081 0.78125 12.5 0.78125C11.2919 0.78125 10.3125 1.76063 10.3125 2.96875C10.3125 4.17687 11.2919 5.15625 12.5 5.15625Z" fill="#D0D0D0"/>
<path d="M12.5 17.6172C9.25781 17.6172 6.64062 19.2578 6.64062 21.2891H18.3594C18.3594 19.2578 15.7422 17.6172 12.5 17.6172Z" fill="#D0D0D0"/>
<path d="M5.89844 21.2891H19.1016V22.7734H5.89844V21.2891Z" fill="#545B60"/>
<path d="M4.45312 22.7344H20.5469V24.2187H4.45312V22.7344Z" fill="#6B767C"/>
</g>
<defs>
<clipPath id="clip0_424_600">
<rect width="25" height="25" fill="white"/>
</clipPath>
</defs>
</svg>
