<svg width="23" height="23" viewBox="0 0 23 23" fill="none" xmlns="http://www.w3.org/2000/svg">
<g clip-path="url(#clip0_53_10)">
<path d="M19.7613 12.557C19.8086 12.2065 19.8339 11.8535 19.8373 11.5C19.8339 11.1465 19.8086 10.7936 19.7613 10.4431L22.1101 8.65147C22.2162 8.57254 22.2887 8.45828 22.3137 8.33055C22.3387 8.20282 22.3145 8.07059 22.2458 7.95915L20.0217 4.20158C19.9573 4.08887 19.8528 4.00301 19.7279 3.96017C19.603 3.91734 19.4663 3.9205 19.3436 3.96904L16.5717 5.05773C15.9949 4.62885 15.3642 4.27364 14.6948 4.00075L14.2772 1.13104C14.2587 1.00406 14.1935 0.887932 14.0937 0.804311C13.9939 0.720689 13.8663 0.675277 13.7347 0.676539H9.27575C9.14412 0.675277 9.01651 0.720689 8.91671 0.804311C8.81691 0.887932 8.75172 1.00406 8.7333 1.13104L8.31561 4.00075C7.6454 4.27194 7.01444 4.62728 6.43873 5.05773L3.65595 3.96904C3.53327 3.9205 3.39661 3.91734 3.27171 3.96017C3.14681 4.00301 3.0423 4.08887 2.97789 4.20158L0.753837 7.95915C0.68506 8.07059 0.660867 8.20282 0.685887 8.33055C0.710907 8.45828 0.783383 8.57254 0.88945 8.65147L3.23284 10.4431C3.18577 10.7936 3.16041 11.1465 3.1569 11.5C3.16022 11.8535 3.18558 12.2065 3.23284 12.557L0.88945 14.3486C0.783383 14.4275 0.710907 14.5418 0.685887 14.6695C0.660867 14.7973 0.68506 14.9295 0.753837 15.0409L2.97789 18.7985C3.0423 18.9112 3.14681 18.9971 3.27171 19.0399C3.39661 19.0827 3.53327 19.0796 3.65595 19.031L6.42788 17.9424C7.00467 18.3712 7.63542 18.7264 8.30476 18.9993L8.72245 21.869C8.74087 21.996 8.80606 22.1122 8.90586 22.1958C9.00566 22.2794 9.13327 22.3248 9.2649 22.3235H13.713C13.8446 22.3248 13.9722 22.2794 14.072 22.1958C14.1718 22.1122 14.237 21.996 14.2555 21.869L14.6731 18.9993C15.3433 18.7281 15.9743 18.3728 16.55 17.9424L19.3219 19.031C19.4446 19.0796 19.5813 19.0827 19.7062 19.0399C19.8311 18.9971 19.9356 18.9112 20 18.7985L22.2241 15.0409C22.2928 14.9295 22.317 14.7973 22.292 14.6695C22.267 14.5418 22.1945 14.4275 22.0884 14.3486L19.7613 12.557ZM11.4998 15.2946C10.7293 15.2957 9.9757 15.074 9.33449 14.6577C8.69328 14.2414 8.19323 13.6491 7.89761 12.9558C7.60199 12.2626 7.52408 11.4994 7.67375 10.763C7.82342 10.0266 8.19393 9.34996 8.73842 8.81875C9.2829 8.28754 9.97687 7.92562 10.7325 7.77878C11.4882 7.63193 12.2716 7.70677 12.9836 7.99382C13.6956 8.28086 14.3042 8.76722 14.7324 9.39135C15.1606 10.0155 15.3892 10.7493 15.3892 11.5C15.3899 11.9981 15.2898 12.4914 15.0947 12.9518C14.8995 13.4121 14.6132 13.8305 14.2519 14.1829C13.8907 14.5353 13.4617 14.8149 12.9895 15.0057C12.5172 15.1964 12.011 15.2946 11.4998 15.2946Z" stroke="black" stroke-linecap="round" stroke-linejoin="round"/>
</g>
<defs>
<clipPath id="clip0_53_10">
<rect width="23" height="23" fill="white"/>
</clipPath>
</defs>
</svg>
