<svg width="18" height="18" viewBox="0 0 18 18" fill="none" xmlns="http://www.w3.org/2000/svg">
<path d="M15.5156 7.22136C15.831 7.22136 16.0909 7.46223 16.1216 7.77067L16.125 7.83334V15.0547C16.1251 15.7181 15.8697 16.3559 15.4123 16.8345C14.9549 17.3132 14.331 17.5957 13.6709 17.623L13.5656 17.625H4.05938C3.39878 17.6251 2.76375 17.3686 2.28711 16.9093C1.81046 16.4499 1.52913 15.8233 1.50195 15.1604L1.5 15.0547V7.83334C1.5005 7.6768 1.56071 7.52642 1.66825 7.4131C1.77578 7.29979 1.92246 7.23217 2.07813 7.22414C2.23379 7.21611 2.38659 7.26829 2.50512 7.36995C2.62364 7.47161 2.69887 7.61501 2.71534 7.77067L2.71875 7.83334V15.0547C2.71873 15.3975 2.84896 15.7275 3.08286 15.9772C3.31676 16.2269 3.63672 16.3776 3.97747 16.3986L4.05938 16.401H13.5656C13.9071 16.4011 14.2357 16.2702 14.4844 16.0352C14.7331 15.8002 14.8831 15.4787 14.9038 15.1364L14.9062 15.0547V7.83334C14.9062 7.49552 15.1793 7.22136 15.5156 7.22136ZM4.46888 3.98717L8.26114 0.17919C8.36729 0.0726152 8.50887 0.00913289 8.65874 0.000911517C8.80861 -0.00730986 8.95624 0.0403081 9.07331 0.134638L9.12255 0.17919L12.9143 3.98717C13.0257 4.09759 13.0904 4.2468 13.0952 4.40387C13.1 4.56094 13.0444 4.71384 12.94 4.83089C12.8356 4.94794 12.6904 5.02018 12.5344 5.03264C12.3784 5.04509 12.2237 4.99681 12.1021 4.89779L12.0529 4.85275L9.3 2.08808V11.9948C9.30007 12.1463 9.24418 12.2924 9.14314 12.4049C9.0421 12.5175 8.90309 12.5883 8.75303 12.6038L8.69063 12.6068C8.53976 12.6068 8.39424 12.5507 8.28221 12.4492C8.17019 12.3478 8.09962 12.2082 8.08418 12.0575L8.08125 11.9948V2.09003L5.33078 4.85275C5.22463 4.95933 5.08305 5.02281 4.93317 5.03103C4.7833 5.03925 4.63568 4.99163 4.5186 4.8973L4.46888 4.85324C4.36269 4.74655 4.29948 4.60423 4.29139 4.45361C4.28329 4.30298 4.33087 4.15466 4.425 4.03711L4.46888 3.98717L8.26114 0.17919L4.46888 3.98717Z" fill="#43210D"/>
</svg>
