<svg width="24" height="24" viewBox="0 0 24 24" fill="none" xmlns="http://www.w3.org/2000/svg">
<path d="M8.60004 16.4C7.72682 17.205 6.57613 17.641 5.38877 17.6168C4.20141 17.5926 3.0694 17.1102 2.22964 16.2704C1.38987 15.4307 0.907432 14.2987 0.883277 13.1113C0.859122 11.924 1.29512 10.7733 2.10004 9.90004L9.90004 2.10004C10.7732 1.29512 11.9239 0.859122 13.1113 0.883277C14.2986 0.907432 15.4306 1.38987 16.2704 2.22963C17.1102 3.0694 17.5926 4.2014 17.6168 5.38876C17.6409 6.57612 17.2049 7.72682 16.4 8.60004" stroke="white" stroke-width="1.5" stroke-linecap="round" stroke-linejoin="round"/>
<path d="M5.99902 5.99902L10.249 10.249" stroke="white" stroke-width="1.5" stroke-linecap="round" stroke-linejoin="round"/>
<path d="M23 15.75C23.0034 17.4965 22.4105 19.1918 21.3195 20.5556C20.2285 21.9194 18.7046 22.8699 17 23.25C15.2954 22.8699 13.7715 21.9194 12.6805 20.5556C11.5895 19.1918 10.9966 17.4965 11 15.75V13.5C11 13.1022 11.158 12.7206 11.4393 12.4393C11.7206 12.158 12.1022 12 12.5 12H21.5C21.8978 12 22.2794 12.158 22.5607 12.4393C22.842 12.7206 23 13.1022 23 13.5V15.75Z" stroke="white" stroke-width="1.5" stroke-linecap="round" stroke-linejoin="round"/>
<path d="M17.25 15V19.5" stroke="white" stroke-width="1.5" stroke-linecap="round" stroke-linejoin="round"/>
<path d="M15 17.25H19.5" stroke="white" stroke-width="1.5" stroke-linecap="round" stroke-linejoin="round"/>
</svg>
