<?xml version="1.0" encoding="UTF-8"?>
<!DOCTYPE svg PUBLIC "-//W3C//DTD SVG 1.1//EN" "http://www.w3.org/Graphics/SVG/1.1/DTD/svg11.dtd">
<!-- Creator: CorelDRAW 2021 (64-Bit) -->
<svg xmlns="http://www.w3.org/2000/svg" xml:space="preserve" width="86.5846mm" height="44.0954mm" version="1.1" style="shape-rendering:geometricPrecision; text-rendering:geometricPrecision; image-rendering:optimizeQuality; fill-rule:evenodd; clip-rule:evenodd"
viewBox="0 0 1969.08 1002.81"
 xmlns:xlink="http://www.w3.org/1999/xlink"
 xmlns:xodm="http://www.corel.com/coreldraw/odm/2003">
 <defs>
  <style type="text/css">
   <![CDATA[
    .str0 {stroke:white;stroke-width:38.51;stroke-miterlimit:22.9256}
    .fil0 {fill:#57A8FF}
    .fil2 {fill:#69FF6E}
    .fil1 {fill:#FF6E6E}
    .fil3 {fill:white}
   ]]>
  </style>
 </defs>
 <g id="Слой_x0020_1">
  <metadata id="CorelCorpID_0Corel-Layer"/>
  <path class="fil0 str0" d="M19.6 983.54l301.9 -0.13c1.91,-189.93 67.63,-399.9 288.18,-547.31 0,0 -190.86,-234.61 -190.86,-234.61 -73.87,47.34 -390.44,290.52 -399.22,782.05z"/>
  <path class="fil1 str0" d="M1949.83 983.43l-301.9 -0.13c-1.44,-175.55 -63.93,-399.5 -292.48,-550.72 0,0 191.8,-232.91 191.8,-232.91 101.35,72.28 406.91,325 402.58,783.76z"/>
  <path class="fil2 str0" d="M480.53 160.26l184.56 241.64c141.87,-80.25 381.32,-133.5 634.14,-3.27 0,0 184.23,-242.06 184.23,-242.06 -319.29,-195.77 -732.53,-171.32 -1002.92,3.7z"/>
  <path class="fil3" d="M1384 685.5c-146.54,105.52 -309.21,268.3 -355.4,287.89 -54,22.89 -129.11,-30.72 -147.83,-74.89 -18.97,-44.75 5.3,-139.51 49.51,-158.25 53.99,-22.89 270.17,-31.4 453.72,-54.75z"/>
 </g>
</svg>
