<svg width="55" height="55" viewBox="0 0 55 55" fill="none" xmlns="http://www.w3.org/2000/svg">
<path d="M29.2658 13.04V16.56C32.3591 16.6133 34.7991 17.12 36.5858 18.08C38.3724 19.04 39.6391 20.32 40.3858 21.92C41.1324 23.4933 41.5058 25.2533 41.5058 27.2C41.5058 28.48 41.3058 29.76 40.9058 31.04C40.5324 32.2933 39.8791 33.44 38.9458 34.48C38.0124 35.4933 36.7591 36.32 35.1858 36.96C33.6124 37.6 31.6391 37.9467 29.2658 38V42.4H25.7058V38C23.2791 37.9467 21.2658 37.6 19.6658 36.96C18.0924 36.2933 16.8524 35.44 15.9458 34.4C15.0391 33.3333 14.3991 32.1733 14.0258 30.92C13.6524 29.6667 13.4658 28.4267 13.4658 27.2C13.4658 25.7867 13.6658 24.4533 14.0658 23.2C14.4924 21.92 15.1724 20.8 16.1058 19.84C17.0658 18.8533 18.3324 18.0667 19.9058 17.48C21.4791 16.8933 23.4124 16.5867 25.7058 16.56V13.04H29.2658ZM25.7058 19.6C23.5724 19.6533 21.8658 20 20.5858 20.64C19.3324 21.28 18.4391 22.16 17.9058 23.28C17.3724 24.3733 17.1058 25.6667 17.1058 27.16C17.1058 28.7333 17.3991 30.1067 17.9858 31.28C18.5991 32.4267 19.5324 33.32 20.7858 33.96C22.0658 34.6 23.7058 34.96 25.7058 35.04V19.6ZM29.2658 35.04C31.3191 34.96 32.9724 34.5867 34.2258 33.92C35.5058 33.2533 36.4258 32.3467 36.9858 31.2C37.5724 30.0267 37.8658 28.68 37.8658 27.16C37.8658 25.64 37.5991 24.3333 37.0658 23.24C36.5324 22.12 35.6391 21.2533 34.3858 20.64C33.1324 20 31.4258 19.6533 29.2658 19.6V35.04Z" fill="white"/>
<circle cx="27.5" cy="27.5" r="26" stroke="white" stroke-width="3"/>
</svg>
