<svg width="46" height="46" viewBox="0 0 46 46" fill="none" xmlns="http://www.w3.org/2000/svg">
<path d="M32.0203 24.6531C34.4281 22.2453 35.7578 19.0379 35.7578 15.6328C35.7578 12.2232 34.4326 9.02031 32.0203 6.6125C29.6125 4.20469 26.4051 2.875 23 2.875C19.5949 2.875 16.3875 4.2002 13.9797 6.6125C11.5719 9.0248 10.2422 12.2232 10.2422 15.6328C10.2422 18.4988 11.1811 21.2211 12.9105 23.4447C13.2385 23.867 13.5934 24.2668 13.9752 24.6531C14.357 25.035 14.7613 25.3898 15.1791 25.7178C16.958 27.1014 19.0559 27.9818 21.293 28.2783V33.0625H16.1719C15.9742 33.0625 15.8125 33.2242 15.8125 33.4219V36.1172C15.8125 36.3148 15.9742 36.4766 16.1719 36.4766H21.293V42.7656C21.293 42.9633 21.4547 43.125 21.6523 43.125H24.3477C24.5453 43.125 24.707 42.9633 24.707 42.7656V36.4766H29.8281C30.0258 36.4766 30.1875 36.3148 30.1875 36.1172V33.4219C30.1875 33.2242 30.0258 33.0625 29.8281 33.0625H24.707V28.2783C27.4697 27.91 30.0168 26.6566 32.0203 24.6531ZM23 24.9766C20.5023 24.9766 18.1619 24.0063 16.392 22.2408C14.6266 20.4754 13.6562 18.1305 13.6562 15.6328C13.6562 13.1352 14.6266 10.7947 16.392 9.0248C18.1574 7.25488 20.5023 6.28906 23 6.28906C25.4977 6.28906 27.8381 7.25937 29.608 9.0248C31.3734 10.7902 32.3438 13.1352 32.3438 15.6328C32.3438 18.1305 31.3734 20.4709 29.608 22.2408C27.8381 24.0063 25.4977 24.9766 23 24.9766Z" fill="white"/>
</svg>
